<svg width="32" height="32" viewBox="0 0 32 32" fill="none" xmlns="http://www.w3.org/2000/svg">
<path d="M13 18.25L19 12.25M23.5 8.75699V25.75L19.75 24.25L16 25.75L12.25 24.25L8.5 25.75V8.75699C8.5 7.649 9.30608 6.70014 10.4067 6.57241C12.2416 6.35947 14.108 6.25 16 6.25C17.892 6.25 19.7584 6.35947 21.5933 6.57241C22.6939 6.70014 23.5 7.649 23.5 8.75699ZM13.75 13H13.7575V13.0075H13.75V13ZM14.125 13C14.125 13.2071 13.9571 13.375 13.75 13.375C13.5429 13.375 13.375 13.2071 13.375 13C13.375 12.7929 13.5429 12.625 13.75 12.625C13.9571 12.625 14.125 12.7929 14.125 13ZM18.25 17.5H18.2575V17.5075H18.25V17.5ZM18.625 17.5C18.625 17.7071 18.4571 17.875 18.25 17.875C18.0429 17.875 17.875 17.7071 17.875 17.5C17.875 17.2929 18.0429 17.125 18.25 17.125C18.4571 17.125 18.625 17.2929 18.625 17.5Z" stroke="#F3F0FE" stroke-width="1.5" stroke-linecap="round" stroke-linejoin="round"/>
</svg>
