<svg width="32" height="33" viewBox="0 0 32 33" fill="none" xmlns="http://www.w3.org/2000/svg">
<path d="M20 9.5C20 8.56812 20 8.10218 20.1522 7.73463C20.3552 7.24458 20.7446 6.85523 21.2346 6.65224C21.6022 6.5 22.0681 6.5 23 6.5C23.9319 6.5 24.3978 6.5 24.7654 6.65224C25.2554 6.85523 25.6448 7.24458 25.8478 7.73463C26 8.10218 26 8.56812 26 9.5V13.5C26 14.4319 26 14.8978 25.8478 15.2654C25.6448 15.7554 25.2554 16.1448 24.7654 16.3478C24.3978 16.5 23.9319 16.5 23 16.5C22.0681 16.5 21.6022 16.5 21.2346 16.3478C20.7446 16.1448 20.3552 15.7554 20.1522 15.2654C20 14.8978 20 14.4319 20 13.5V9.5Z" stroke="#F3F0FE" stroke-width="1.5"/>
<path d="M20 23.5C20 22.5681 20 22.1022 20.1522 21.7346C20.3552 21.2446 20.7446 20.8552 21.2346 20.6522C21.6022 20.5 22.0681 20.5 23 20.5C23.9319 20.5 24.3978 20.5 24.7654 20.6522C25.2554 20.8552 25.6448 21.2446 25.8478 21.7346C26 22.1022 26 22.5681 26 23.5C26 24.4319 26 24.8978 25.8478 25.2654C25.6448 25.7554 25.2554 26.1448 24.7654 26.3478C24.3978 26.5 23.9319 26.5 23 26.5C22.0681 26.5 21.6022 26.5 21.2346 26.3478C20.7446 26.1448 20.3552 25.7554 20.1522 25.2654C20 24.8978 20 24.4319 20 23.5Z" stroke="#F3F0FE" stroke-width="1.5"/>
<path d="M6 20.5C6 18.6144 6 17.6716 6.58579 17.0858C7.17157 16.5 8.11438 16.5 10 16.5H12C13.8856 16.5 14.8284 16.5 15.4142 17.0858C16 17.6716 16 18.6144 16 20.5V22.5C16 24.3856 16 25.3284 15.4142 25.9142C14.8284 26.5 13.8856 26.5 12 26.5H10C8.11438 26.5 7.17157 26.5 6.58579 25.9142C6 25.3284 6 24.3856 6 22.5V20.5Z" stroke="#F3F0FE" stroke-width="1.5"/>
<path d="M6 9.5C6 8.56812 6 8.10218 6.15224 7.73463C6.35523 7.24458 6.74458 6.85523 7.23463 6.65224C7.60218 6.5 8.06812 6.5 9 6.5H13C13.9319 6.5 14.3978 6.5 14.7654 6.65224C15.2554 6.85523 15.6448 7.24458 15.8478 7.73463C16 8.10218 16 8.56812 16 9.5C16 10.4319 16 10.8978 15.8478 11.2654C15.6448 11.7554 15.2554 12.1448 14.7654 12.3478C14.3978 12.5 13.9319 12.5 13 12.5H9C8.06812 12.5 7.60218 12.5 7.23463 12.3478C6.74458 12.1448 6.35523 11.7554 6.15224 11.2654C6 10.8978 6 10.4319 6 9.5Z" stroke="#F3F0FE" stroke-width="1.5"/>
</svg>
