<svg width="668" height="518" viewBox="0 0 668 518" fill="none" xmlns="http://www.w3.org/2000/svg">
<path d="M201.504 156.693L264.7 140.739L284.997 107.961C302.409 69.1999 297.23 30.5092 297.23 30.5092C271.744 24.9145 205.856 28.0225 200.261 32.9945C194.666 37.9678 126.913 84.5879 115.724 92.6679C104.536 100.749 86.5085 121.884 86.5085 121.884L64.7461 142.501C76.7513 147.079 97.3248 165.197 123.729 191.603C123.729 191.603 184.721 178.449 201.504 156.693Z" fill="#8B6A40"/>
<path d="M199.638 107.586L200.15 121.042L200.102 121.022C194.021 135.614 163.93 158.454 163.626 158.684L164.376 159.674C165.569 158.776 192.405 138.396 200.248 123.584L201.504 156.693C184.721 178.449 123.729 191.602 123.729 191.602C97.3248 165.197 76.7513 147.078 64.7461 142.501L62.8877 144.261L110.752 230.662L136.858 206.42C182.234 220.096 206.476 175.962 206.476 175.962C249.834 161.934 278.693 93.5318 290.806 66.5612L199.638 107.586Z" fill="#745238"/>
<path d="M212.07 60.9679C212.07 60.9679 218.534 145.235 216.669 178.8C216.669 178.8 334.062 137.047 497.384 179.071C497.384 179.071 527.841 113.936 522.869 4.40257C522.869 4.40257 385.497 -22.3268 212.07 60.9679Z" fill="#AE6523"/>
<path d="M490.108 22.0385C490.108 18.8158 491.136 15.8411 492.862 13.4118C459.626 11.2598 352.469 9.50514 234.604 62.2571C236.986 64.3798 238.498 67.4825 238.498 70.9492C238.498 77.3478 233.378 82.5345 227.062 82.5345C226.013 82.5345 225.002 82.3798 224.037 82.1118L225.054 152.777C226.892 151.501 229.113 150.753 231.509 150.753C235.6 150.753 239.18 152.936 241.201 156.206C276.526 149.285 366.384 136.504 472.022 158.266C470.218 155.805 469.138 152.766 469.138 149.465C469.138 141.29 475.682 134.664 483.753 134.664C489.02 134.664 493.62 137.493 496.192 141.722C499.918 126.92 512.657 72.9131 510.181 35.7625C508.493 36.4518 506.653 36.8412 504.721 36.8412C496.649 36.8412 490.108 30.2145 490.108 22.0385Z" fill="#DD8D3A"/>
<path d="M119.143 104.789C119.143 104.789 141.521 97.3305 144.007 96.0865C146.493 94.8438 191.248 58.7918 231.031 66.8718C231.031 66.8718 264.596 50.7105 277.649 58.7918C290.704 66.8718 274.543 94.8438 231.652 96.0865C231.652 96.0865 208.031 119.708 184.411 125.302L119.143 104.789Z" fill="#745238"/>
<path d="M120.075 106.344C120.075 106.344 142.453 98.8852 144.938 97.6412C147.425 96.3985 192.181 60.3452 231.962 68.4265C231.962 68.4265 265.529 52.2652 278.581 60.3452C291.636 68.4265 275.474 96.3985 232.584 97.6412C232.584 97.6412 208.964 121.263 185.342 126.857L120.075 106.344Z" fill="#8B6A40"/>
<path d="M353.441 62.8611C353.877 65.9198 351.751 68.7518 348.691 69.1878L300.28 76.0758C297.221 76.5105 294.388 74.3851 293.953 71.3251C293.519 68.2665 295.644 65.4345 298.704 64.9985L347.115 58.1105C350.175 57.6745 353.007 59.8011 353.441 62.8611Z" fill="#AE6523"/>
<path d="M349.299 87.9585C349.733 91.0185 347.607 93.8505 344.547 94.2852L296.137 101.173C293.077 101.609 290.245 99.4825 289.809 96.4238C289.375 93.3638 291.5 90.5318 294.559 90.0972L342.972 83.2078C346.031 82.7732 348.863 84.8998 349.299 87.9585Z" fill="#AE6523"/>
<path d="M335.883 113.433C336.317 116.492 334.683 119.254 332.225 119.604L293.383 125.13C290.929 125.48 288.587 123.284 288.152 120.224C287.716 117.165 289.353 114.402 291.807 114.054L330.649 108.526C333.105 108.177 335.448 110.373 335.883 113.433Z" fill="#AE6523"/>
<path d="M484.072 80.5678C484.072 109.862 460.325 133.61 431.029 133.61C401.734 133.61 377.988 109.862 377.988 80.5678C377.988 51.2745 401.734 27.5265 431.029 27.5265C460.325 27.5265 484.072 51.2745 484.072 80.5678Z" fill="#AE6523"/>
<path d="M255.448 85.8318C243.854 80.1678 244.704 68.8438 244.704 68.8438C244.708 68.8465 244.714 68.8478 244.722 68.8478C245.056 68.8478 248.141 66.8425 252.293 64.8358C256.445 62.8305 261.661 60.8251 266.254 60.8251C270.124 60.8251 273.55 62.2491 275.524 66.2958C282.622 80.8585 255.448 85.8318 255.448 85.8318Z" fill="#A08560"/>
<path d="M121.729 252.631C118.136 277.095 25.0957 335.985 0.729004 351.029V162.773L46.316 133.284C46.316 133.284 54.5968 120.852 68.6936 140.743C82.7796 160.635 125.882 224.447 121.729 252.631Z" fill="#DD8D3A"/>
<path d="M93.6201 233.696L0.729004 297.832V283.734L87.0192 224.148C89.6534 222.321 93.2712 222.993 95.0868 225.628C96.9144 228.264 96.255 231.869 93.6201 233.696Z" fill="#885629"/>
<path d="M91.8968 261.117C91.8968 266.956 87.1644 271.688 81.3258 271.688C75.4873 271.688 70.7534 266.956 70.7534 261.117C70.7534 255.278 75.4873 250.545 81.3258 250.545C87.1644 250.545 91.8968 255.278 91.8968 261.117Z" fill="#FBC617"/>
<path d="M78.8221 262.786C75.9033 262.786 73.5366 260.42 73.5366 257.5C73.5366 254.581 75.9033 252.215 78.8221 252.215C81.7414 252.215 84.1085 254.581 84.1085 257.5C84.1085 260.42 81.7414 262.786 78.8221 262.786Z" fill="#F9D83B"/>
<path d="M67.1836 281.841C67.1836 287.68 62.4519 292.412 56.6128 292.412C50.7752 292.412 46.0415 287.68 46.0415 281.841C46.0415 276.004 50.7752 271.268 56.6128 271.268C62.4519 271.268 67.1836 276.004 67.1836 281.841Z" fill="#FBC617"/>
<path d="M54.1091 283.51C51.1904 283.51 48.8237 281.142 48.8237 278.224C48.8237 275.305 51.1904 272.937 54.1091 272.937C57.0279 272.937 59.3956 275.305 59.3956 278.224C59.3956 281.142 57.0279 283.51 54.1091 283.51Z" fill="#F9D83B"/>
<path d="M432.078 75.7771H442.468L448.196 67.2931H431.874C431.028 63.2944 429.084 60.2464 426.777 57.9277H442.468L448.196 49.4451H404.128L398.398 57.9277H412.054C415.218 59.8384 419.153 62.9464 420.969 67.2931H404.128L398.398 75.7771H421.666C420.117 84.3504 413.057 87.5651 409.636 87.5651C405.78 87.5651 399.72 87.5651 399.72 87.5651L433.048 120.893H445.442L419.138 94.5891C419.138 94.5891 430.273 89.9517 432.078 75.7771Z" fill="#DD8D3A"/>
<path d="M603.007 293.461C588.796 289.062 572.969 284.617 566.181 284.308C552.521 283.688 527.063 347.025 520.232 378.072C513.401 409.12 528.304 409.74 528.304 409.74L541.195 415.745C543.192 400.377 551.644 376.168 564.753 350.38C577.601 325.106 591.863 304.324 603.007 293.461Z" fill="white"/>
<path d="M377.413 311.009C379.276 311.009 388.591 313.493 388.591 313.493C388.591 313.493 409.703 381.798 506.571 363.169L522.715 358.822L551.521 369.025C574.792 332.31 570.528 297.349 570.528 297.349C558.109 297.349 556.867 282.446 540.723 261.333C524.579 240.221 468.693 219.109 468.693 219.109L423.984 234.01L332.084 324.67C332.084 324.67 333.467 325.616 335.797 327.168L348.229 314.736C348.229 314.736 375.551 311.009 377.413 311.009Z" fill="#FABE84"/>
<path d="M522.715 358.822L506.571 363.169C445.488 374.917 414.535 352.097 399.996 333.634C413.285 333.169 442.944 333.058 468.072 339.573L483.595 279.962L397.301 330.013C390.856 320.816 388.591 313.493 388.591 313.493C388.591 313.493 379.276 311.009 377.415 311.009C375.551 311.009 348.229 314.736 348.229 314.736L335.797 327.168C346.635 334.377 378.409 354.916 391.695 356.96C407.84 359.444 474.903 390.49 474.903 390.49L509.676 379.313L533.271 391.733C540.72 384.284 546.709 376.617 551.521 369.025L522.715 358.822Z" fill="#DC9D74"/>
<path d="M173.896 254.657L254.465 376.829C254.465 376.829 323.391 315.357 465.588 333.362L498.499 209.174C498.499 209.174 352.285 148.713 173.896 254.657Z" fill="#4F9634"/>
<path d="M481.898 215.965C481.898 215.965 476.344 214.079 466.13 211.867C467.346 222.739 473.085 230.532 477.416 234.981L481.898 215.965Z" fill="#77B459"/>
<path d="M259.624 356.022C259.624 356.022 264.285 352.417 273.636 347.326C265.077 342.513 256.109 341.121 249.741 340.85L259.624 356.022Z" fill="#77B459"/>
<path d="M458.392 315.704L461.565 302.247C451.358 304.672 443.569 310.22 438.74 314.583C445.121 314.811 451.666 315.176 458.392 315.704Z" fill="#77B459"/>
<path d="M214.185 248.233C208.025 251.192 201.816 254.319 195.552 257.667L205.728 273.289C213.057 264.149 214.248 254.121 214.185 248.233Z" fill="#77B459"/>
<path d="M457.269 210.108C416.296 202.688 328.105 196.106 222.669 244.252C223.269 250.6 223.304 266.912 210.617 280.79L244.225 332.384C252 331.996 268.092 332.694 282.456 342.816C308.381 330.341 356.46 313.626 427.05 314.312C430.676 309.934 443.426 296.304 463.695 293.2L475.165 244.54C469.987 240.305 458.224 228.692 457.269 210.108Z" fill="#77B459"/>
<path d="M400.447 264.078C400.213 291.578 377.598 313.682 349.933 313.452C322.265 313.224 300.026 290.747 300.257 263.248C300.486 235.749 323.102 213.642 350.77 213.873C378.434 214.102 400.677 236.581 400.447 264.078Z" fill="#4F9634"/>
<path d="M277.564 257.672C278.43 260.379 276.925 263.269 274.202 264.131L253.686 270.619C250.96 271.479 248.052 269.983 247.185 267.277C246.318 264.568 247.822 261.676 250.548 260.816L271.065 254.328C273.786 253.469 276.698 254.965 277.564 257.672Z" fill="#4F9634"/>
<path d="M284.974 278.237C285.841 280.943 283.618 284.063 280.013 285.201L252.838 293.793C249.232 294.933 245.608 293.664 244.74 290.957C243.874 288.251 246.094 285.132 249.702 283.992L276.874 275.4C280.482 274.259 284.109 275.528 284.974 278.237Z" fill="#4F9634"/>
<path d="M500.981 324.253C484.216 310.593 486.08 282.447 486.08 282.447C471.177 282.447 456.273 265.681 456.273 265.681L429.573 267.543C368.099 288.656 370.583 251.244 378.035 248.294C386.139 245.085 466.829 221.593 466.829 221.593L512.365 249.743L500.981 324.253Z" fill="#DC9D74"/>
<path d="M500.981 320.945C484.216 307.284 487.943 279.963 487.943 279.963C473.039 279.963 458.137 263.196 458.137 263.196L431.436 265.06C369.963 286.172 370.893 250.777 379.276 247.828C387.497 244.936 468.693 219.109 468.693 219.109C468.693 219.109 496.015 225.94 528.304 248.915L500.981 320.945Z" fill="#FABE84"/>
<path d="M365.139 269.432C364.42 267.135 363.175 265.673 361.401 265.053C359.629 264.439 357.02 264.325 353.579 264.717L358.339 279.911C361.203 278.704 363.239 277.255 364.452 275.563C365.661 273.873 365.893 271.829 365.139 269.432ZM347.073 259.204L342.323 244.049C339.751 245.063 337.757 246.461 336.349 248.253C334.94 250.045 334.581 252.043 335.269 254.244C335.968 256.472 337.156 257.943 338.839 258.653C340.523 259.367 343.268 259.552 347.073 259.204ZM371.819 266.316C373.008 270.111 372.508 273.72 370.311 277.148C368.123 280.581 364.685 283.275 360.007 285.232L364.168 298.517L359.812 299.865L355.709 286.765C352.451 287.747 349.3 288.379 346.259 288.661C343.216 288.947 340.5 288.936 338.108 288.632L335.831 281.364L336.42 281.183C336.996 281.379 337.988 281.616 339.395 281.891C340.807 282.167 342.141 282.336 343.405 282.403C344.832 282.472 346.461 282.443 348.299 282.313C350.139 282.192 352.037 281.861 354.005 281.332L349.027 265.445C347.98 265.552 347.011 265.645 346.117 265.72C345.223 265.796 344.388 265.848 343.612 265.871C339.287 266.109 335.932 265.492 333.552 264.016C331.172 262.536 329.517 260.319 328.591 257.36C327.457 253.739 327.932 250.233 330.016 246.855C332.101 243.469 335.652 240.776 340.667 238.767L337.54 228.783L341.896 227.435L344.999 237.341C347.501 236.623 350.143 236.128 352.92 235.857C355.697 235.587 358.084 235.535 360.079 235.695L362.331 242.887L361.813 243.048C359.617 242.493 357.376 242.091 355.099 241.845C352.82 241.597 350.011 241.869 346.667 242.663L351.624 258.479C352.403 258.372 353.252 258.293 354.18 258.233C355.105 258.175 355.907 258.108 356.585 258.031C360.5 257.677 363.757 258.145 366.361 259.433C368.965 260.72 370.785 263.017 371.819 266.316Z" fill="#77B459"/>
<path d="M618.681 285.775C615.218 284.016 609.669 286.965 603.006 293.461C606.541 294.554 609.972 295.643 613.144 296.667L618.681 285.775Z" fill="#72371B"/>
<path d="M541.194 415.745C540.066 424.442 540.997 430.318 544.341 432.02L550.428 420.045L541.194 415.745Z" fill="#72371B"/>
<path d="M613.144 296.667C609.972 295.643 606.541 294.555 603.006 293.461C591.862 304.324 577.601 325.107 564.753 350.38C551.644 376.168 543.192 400.377 541.194 415.745L550.428 420.045L613.144 296.667Z" fill="white"/>
<path d="M667.396 312.264V517.252L544.337 432.021C547.776 433.77 553.29 430.864 559.884 424.456C571.049 413.628 585.368 392.788 598.272 367.417C612.093 340.205 620.75 314.758 622.09 299.596C622.749 292.257 621.706 287.313 618.676 285.773L667.396 312.264Z" fill="#8F4E2A"/>
<path d="M622.096 299.6C622.75 292.255 621.7 287.311 618.681 285.775L613.144 296.667C616.482 297.745 619.533 298.748 622.096 299.6Z" fill="#5F2D18"/>
<path d="M559.891 424.453L550.428 420.045L544.341 432.02C547.783 433.768 553.285 430.861 559.891 424.453Z" fill="#5F2D18"/>
<path d="M550.428 420.045L559.89 424.453C571.053 413.624 585.372 392.784 598.268 367.416C612.097 340.209 620.746 314.761 622.096 299.6C619.533 298.748 616.482 297.745 613.144 296.666L550.428 420.045Z" fill="#DFDFDD"/>
<path d="M619.376 435.612C619.376 444.301 612.333 451.344 603.645 451.344C594.958 451.344 587.913 444.301 587.913 435.612C587.913 426.925 594.958 419.881 603.645 419.881C612.333 419.881 619.376 426.925 619.376 435.612Z" fill="#FBC617"/>
<path d="M602.23 438.889C597.698 438.889 594.025 435.216 594.025 430.685C594.025 426.155 597.698 422.481 602.23 422.481C606.76 422.481 610.433 426.155 610.433 430.685C610.433 435.216 606.76 438.889 602.23 438.889Z" fill="#F9D83B"/>
<path d="M653.558 456.056C653.558 464.745 646.516 471.788 637.828 471.788C629.14 471.788 622.096 464.745 622.096 456.056C622.096 447.369 629.14 440.325 637.828 440.325C646.516 440.325 653.558 447.369 653.558 456.056Z" fill="#FBC617"/>
<path d="M636.413 459.333C631.881 459.333 628.208 455.66 628.208 451.129C628.208 446.598 631.881 442.925 636.413 442.925C640.943 442.925 644.616 446.598 644.616 451.129C644.616 455.66 640.943 459.333 636.413 459.333Z" fill="#F9D83B"/>
<path d="M385.693 266.094C373.481 258.024 379.897 249.536 379.897 249.536C379.897 249.536 388.512 245.274 403.493 242.705C404.037 242.612 404.555 242.568 405.048 242.568C414.42 242.568 414.98 258.54 414.98 258.54C396.041 265.99 385.693 266.094 385.693 266.094Z" fill="#FDDDBC"/>
</svg>
