<svg width="897" height="504" viewBox="0 0 897 504" fill="none" xmlns="http://www.w3.org/2000/svg">
<rect x="145" y="115" width="752" height="389" rx="16" fill="#B81EF5"/>
<rect x="145.5" y="115.5" width="751" height="388" rx="15.5" stroke="#373737" stroke-opacity="0.5"/>
<path d="M186.467 172.808H195.299V176H182.939V159.2H195.059V162.392H186.467V165.944H194.483V169.112H186.467V172.808ZM209.637 176H205.797L203.253 171.992L200.709 176H196.893L201.069 169.736L197.133 163.76H200.901L203.253 167.528L205.605 163.76H209.397L205.437 169.736L209.637 176ZM210.291 169.88C210.291 166.064 212.859 163.424 216.699 163.424C219.099 163.424 221.115 164.48 222.099 166.232L219.555 168.032C218.883 167 217.923 166.52 216.795 166.52C214.971 166.52 213.747 167.84 213.747 169.88C213.747 171.92 214.971 173.24 216.795 173.24C217.923 173.24 218.883 172.76 219.555 171.728L222.099 173.504C221.115 175.304 219.099 176.336 216.699 176.336C212.859 176.336 210.291 173.672 210.291 169.88ZM235.607 167.984V176H232.199V168.872C232.199 167.264 231.551 166.52 230.111 166.52C228.503 166.52 227.567 167.456 227.567 169.088V176H224.159V158.432H227.567V165.416C228.263 164.168 229.655 163.424 231.407 163.424C234.023 163.424 235.607 165.08 235.607 167.984ZM247.616 163.76H250.976V176H247.616V174.176C246.92 175.52 245.36 176.336 243.608 176.336C240.416 176.336 238.088 173.672 238.088 169.88C238.088 166.088 240.416 163.424 243.608 163.424C245.36 163.424 246.92 164.24 247.616 165.584V163.76ZM247.688 169.88C247.688 167.84 246.512 166.496 244.616 166.496C242.72 166.496 241.544 167.84 241.544 169.88C241.544 171.92 242.72 173.264 244.616 173.264C246.512 173.264 247.688 171.92 247.688 169.88ZM265.678 167.984V176H262.27V168.872C262.27 167.264 261.622 166.52 260.182 166.52C258.574 166.52 257.638 167.456 257.638 169.088V176H254.23V163.76H257.566V165.536C258.238 164.216 259.678 163.424 261.478 163.424C264.094 163.424 265.678 165.08 265.678 167.984ZM277.711 163.76H281.047V174.584C281.047 178.712 278.623 181.136 274.303 181.136C271.927 181.136 269.839 180.44 268.519 179.216L270.055 176.744C271.231 177.632 272.671 178.136 274.087 178.136C276.391 178.136 277.735 176.816 277.735 174.584V173.648C277.039 175.016 275.527 175.832 273.679 175.832C270.511 175.832 268.159 173.288 268.159 169.688C268.159 166.064 270.535 163.424 273.703 163.424C275.455 163.424 277.015 164.216 277.711 165.56V163.76ZM277.783 169.64C277.783 167.744 276.559 166.448 274.711 166.448C272.863 166.448 271.639 167.744 271.639 169.64C271.639 171.536 272.863 172.832 274.711 172.832C276.559 172.832 277.783 171.536 277.783 169.64ZM295.82 170.888H287.036C287.348 172.592 288.5 173.432 290.324 173.432C291.62 173.432 292.676 173 293.492 172.112L295.436 174.128C294.26 175.544 292.436 176.336 290.204 176.336C286.244 176.336 283.604 173.816 283.604 169.928C283.604 166.136 286.124 163.424 289.868 163.424C293.492 163.424 295.892 165.92 295.892 169.712C295.892 170.072 295.868 170.48 295.82 170.888ZM287.036 168.68H292.508C292.388 167.144 291.452 166.304 289.892 166.304C288.332 166.304 287.324 167.144 287.036 168.68ZM303.225 167.624C303.153 162.68 306.801 158.792 311.889 158.864C315.321 158.864 318.057 160.472 319.425 163.448L316.377 165.032C315.489 163.136 313.905 162.2 311.961 162.2C308.985 162.2 306.921 164.48 306.921 167.6C306.921 170.72 308.985 173 311.961 173C313.905 173 315.513 172.064 316.401 170.168L319.425 171.752C318.057 174.728 315.321 176.336 311.889 176.336C306.825 176.408 303.153 172.592 303.225 167.624ZM321.256 171.296V163.76H324.664V170.864C324.664 172.472 325.408 173.264 326.896 173.264C328.36 173.264 329.104 172.472 329.104 170.864V163.76H332.512V171.296C332.512 174.392 330.424 176.336 326.896 176.336C323.368 176.336 321.256 174.392 321.256 171.296ZM343.501 163.688V166.928C342.997 166.832 342.493 166.784 342.013 166.784C339.925 166.784 338.989 167.768 338.989 170.072V176H335.581V163.76H338.917V165.776C339.517 164.36 340.837 163.52 342.469 163.52C342.877 163.52 343.213 163.568 343.501 163.688ZM353.603 163.688V166.928C353.099 166.832 352.595 166.784 352.115 166.784C350.027 166.784 349.091 167.768 349.091 170.072V176H345.683V163.76H349.019V165.776C349.619 164.36 350.939 163.52 352.571 163.52C352.979 163.52 353.315 163.568 353.603 163.688ZM366.859 170.888H358.075C358.387 172.592 359.539 173.432 361.363 173.432C362.659 173.432 363.715 173 364.531 172.112L366.475 174.128C365.299 175.544 363.475 176.336 361.243 176.336C357.283 176.336 354.643 173.816 354.643 169.928C354.643 166.136 357.163 163.424 360.907 163.424C364.531 163.424 366.931 165.92 366.931 169.712C366.931 170.072 366.907 170.48 366.859 170.888ZM358.075 168.68H363.547C363.427 167.144 362.491 166.304 360.931 166.304C359.371 166.304 358.363 167.144 358.075 168.68ZM380.896 167.984V176H377.488V168.872C377.488 167.264 376.84 166.52 375.4 166.52C373.792 166.52 372.856 167.456 372.856 169.088V176H369.448V163.76H372.784V165.536C373.456 164.216 374.896 163.424 376.696 163.424C379.312 163.424 380.896 165.08 380.896 167.984ZM383.377 169.88C383.377 166.064 385.945 163.424 389.785 163.424C392.185 163.424 394.201 164.48 395.185 166.232L392.641 168.032C391.969 167 391.009 166.52 389.881 166.52C388.057 166.52 386.833 167.84 386.833 169.88C386.833 171.92 388.057 173.24 389.881 173.24C391.009 173.24 391.969 172.76 392.641 171.728L395.185 173.504C394.201 175.304 392.185 176.336 389.785 176.336C385.945 176.336 383.377 173.672 383.377 169.88ZM404.949 163.76H408.333V174.752C408.333 178.856 406.005 181.136 401.805 181.136C399.693 181.136 397.797 180.536 396.573 179.504L397.989 176.984C399.021 177.728 400.341 178.136 401.589 178.136C403.725 178.136 404.997 176.936 404.997 174.752V173.768C404.325 175.04 402.909 175.832 401.157 175.832C398.589 175.832 397.005 174.152 397.005 171.272V163.76H400.413V170.384C400.413 171.992 401.037 172.736 402.453 172.736C403.989 172.736 404.949 171.8 404.949 170.168V163.76Z" fill="url(#paint0_linear_46_14266)"/>
<path d="M186.335 201.512H189.587V204.824C188.927 205.676 187.703 206.168 186.263 206.168C183.575 206.204 181.775 204.332 181.811 201.824C181.775 199.268 183.647 197.408 186.107 197.432C187.559 197.432 188.747 198.032 189.419 199.076L188.615 199.652C188.087 198.848 187.211 198.416 186.119 198.416C184.187 198.416 182.915 199.784 182.915 201.836C182.915 203.912 184.235 205.184 186.251 205.184C187.247 205.184 188.111 204.884 188.555 204.44V202.484H186.335V201.512ZM196.97 203.276H192.11C192.218 204.488 193.034 205.232 194.222 205.232C195.002 205.232 195.65 204.92 196.154 204.284L196.838 204.86C196.25 205.688 195.314 206.168 194.198 206.168C192.362 206.168 191.078 204.86 191.078 202.976C191.078 201.116 192.326 199.76 194.114 199.76C195.806 199.76 197.006 200.972 197.006 202.736C197.006 202.916 196.994 203.096 196.97 203.276ZM192.134 202.46H195.974C195.878 201.344 195.17 200.696 194.114 200.696C193.046 200.696 192.314 201.368 192.134 202.46ZM199.032 204.44V200.792H197.82V199.928H199.032V198.128H200.04V199.928H201.948V200.792H200.04V204.368C200.04 204.956 200.34 205.208 201.024 205.208C201.3 205.208 201.624 205.172 201.972 205.1V205.94C201.624 206.048 201.264 206.096 200.88 206.096C199.68 206.096 199.032 205.532 199.032 204.44ZM206.544 204.44V200.792H205.332V199.928H206.544V198.128H207.552V199.928H209.46V200.792H207.552V204.368C207.552 204.956 207.852 205.208 208.536 205.208C208.812 205.208 209.136 205.172 209.484 205.1V205.94C209.136 206.048 208.776 206.096 208.392 206.096C207.192 206.096 206.544 205.532 206.544 204.44ZM216.301 202.112V206H215.293V202.352C215.293 201.2 214.861 200.696 213.901 200.696C212.809 200.696 212.029 201.368 212.029 202.388V206H211.021V197.216H212.029V200.96C212.365 200.192 213.145 199.76 214.141 199.76C215.521 199.76 216.301 200.612 216.301 202.112ZM223.876 203.276H219.016C219.124 204.488 219.94 205.232 221.128 205.232C221.908 205.232 222.556 204.92 223.06 204.284L223.744 204.86C223.156 205.688 222.22 206.168 221.104 206.168C219.268 206.168 217.984 204.86 217.984 202.976C217.984 201.116 219.232 199.76 221.02 199.76C222.712 199.76 223.912 200.972 223.912 202.736C223.912 202.916 223.9 203.096 223.876 203.276ZM219.04 202.46H222.88C222.784 201.344 222.076 200.696 221.02 200.696C219.952 200.696 219.22 201.368 219.04 202.46ZM234.521 202.964C234.521 204.836 233.297 206.168 231.641 206.168C230.621 206.168 229.757 205.664 229.385 204.884V206H228.377V197.216H229.385V201.044C229.757 200.264 230.621 199.76 231.641 199.76C233.297 199.76 234.521 201.092 234.521 202.964ZM233.465 202.964C233.465 202.304 233.273 201.752 232.889 201.332C232.517 200.912 232.013 200.696 231.401 200.696C230.789 200.696 230.285 200.912 229.901 201.332C229.529 201.752 229.337 202.304 229.337 202.964C229.337 203.624 229.529 204.176 229.901 204.596C230.285 205.016 230.789 205.232 231.401 205.232C232.013 205.232 232.517 205.016 232.889 204.596C233.273 204.176 233.465 203.624 233.465 202.964ZM241.712 203.276H236.852C236.96 204.488 237.776 205.232 238.964 205.232C239.744 205.232 240.392 204.92 240.896 204.284L241.58 204.86C240.992 205.688 240.056 206.168 238.94 206.168C237.104 206.168 235.82 204.86 235.82 202.976C235.82 201.116 237.068 199.76 238.856 199.76C240.548 199.76 241.748 200.972 241.748 202.736C241.748 202.916 241.736 203.096 241.712 203.276ZM236.876 202.46H240.716C240.62 201.344 239.912 200.696 238.856 200.696C237.788 200.696 237.056 201.368 236.876 202.46ZM242.871 204.848L243.603 204.308C244.035 204.932 244.743 205.256 245.571 205.256C246.435 205.256 246.963 204.896 246.963 204.332C246.963 203.9 246.663 203.648 245.895 203.468L244.935 203.252C243.687 202.964 243.087 202.412 243.087 201.56C243.087 200.492 243.999 199.76 245.475 199.76C246.531 199.76 247.383 200.132 247.875 200.792L247.179 201.392C246.783 200.924 246.171 200.672 245.415 200.672C244.551 200.672 244.095 200.996 244.095 201.536C244.095 201.932 244.371 202.16 245.187 202.352L246.255 202.592C247.455 202.868 247.971 203.408 247.971 204.26C247.971 205.412 247.071 206.168 245.583 206.168C244.347 206.168 243.351 205.664 242.871 204.848ZM250.02 204.44V200.792H248.808V199.928H250.02V198.128H251.028V199.928H252.936V200.792H251.028V204.368C251.028 204.956 251.328 205.208 252.012 205.208C252.288 205.208 252.612 205.172 252.96 205.1V205.94C252.612 206.048 252.252 206.096 251.868 206.096C250.668 206.096 250.02 205.532 250.02 204.44ZM262.724 203.276H257.864C257.972 204.488 258.788 205.232 259.976 205.232C260.756 205.232 261.404 204.92 261.908 204.284L262.592 204.86C262.004 205.688 261.068 206.168 259.952 206.168C258.116 206.168 256.832 204.86 256.832 202.976C256.832 201.116 258.08 199.76 259.868 199.76C261.56 199.76 262.76 200.972 262.76 202.736C262.76 202.916 262.748 203.096 262.724 203.276ZM257.888 202.46H261.728C261.632 201.344 260.924 200.696 259.868 200.696C258.8 200.696 258.068 201.368 257.888 202.46ZM269.202 206H268.062L266.346 203.552L264.618 206H263.478L265.674 202.88L263.598 199.928H264.726L266.346 202.244L267.954 199.928H269.082L267.006 202.88L269.202 206ZM269.945 202.964C269.945 201.116 271.217 199.76 273.065 199.76C274.181 199.76 275.093 200.228 275.609 201.08L274.817 201.632C274.445 201.02 273.833 200.696 273.077 200.696C272.465 200.696 271.961 200.9 271.577 201.32C271.193 201.74 271.001 202.28 271.001 202.964C271.001 203.648 271.193 204.188 271.577 204.608C271.961 205.028 272.465 205.232 273.077 205.232C273.833 205.232 274.445 204.908 274.817 204.296L275.609 204.848C275.093 205.7 274.181 206.168 273.065 206.168C271.217 206.168 269.945 204.812 269.945 202.964ZM282.395 202.112V206H281.387V202.352C281.387 201.2 280.955 200.696 279.995 200.696C278.903 200.696 278.123 201.368 278.123 202.388V206H277.115V197.216H278.123V200.96C278.459 200.192 279.239 199.76 280.235 199.76C281.615 199.76 282.395 200.612 282.395 202.112ZM289.214 199.928H290.222V206H289.214V204.884C288.866 205.664 287.99 206.168 286.97 206.168C285.302 206.168 284.078 204.836 284.078 202.964C284.078 201.092 285.302 199.76 286.97 199.76C287.99 199.76 288.866 200.264 289.214 201.044V199.928ZM289.262 202.964C289.262 202.304 289.07 201.752 288.686 201.332C288.314 200.912 287.81 200.696 287.198 200.696C286.586 200.696 286.082 200.912 285.698 201.332C285.326 201.752 285.134 202.304 285.134 202.964C285.134 203.624 285.326 204.176 285.698 204.596C286.082 205.016 286.586 205.232 287.198 205.232C287.81 205.232 288.314 205.016 288.686 204.596C289.07 204.176 289.262 203.624 289.262 202.964ZM297.665 202.112V206H296.657V202.352C296.657 201.2 296.225 200.696 295.265 200.696C294.173 200.696 293.393 201.368 293.393 202.388V206H292.385V199.928H293.393V200.96C293.729 200.192 294.509 199.76 295.505 199.76C296.885 199.76 297.665 200.612 297.665 202.112ZM304.483 199.928H305.491V205.304C305.491 207.416 304.351 208.568 302.335 208.568C301.195 208.568 300.199 208.196 299.575 207.56L300.151 206.816C300.715 207.332 301.483 207.632 302.335 207.632C303.727 207.632 304.483 206.84 304.483 205.304V204.752C304.135 205.52 303.283 206 302.239 206C300.571 206 299.347 204.716 299.347 202.88C299.347 201.044 300.571 199.76 302.239 199.76C303.259 199.76 304.135 200.252 304.483 201.032V199.928ZM304.531 202.88C304.531 202.244 304.339 201.716 303.955 201.308C303.583 200.9 303.079 200.696 302.467 200.696C301.855 200.696 301.351 200.9 300.967 201.308C300.595 201.716 300.403 202.244 300.403 202.88C300.403 203.516 300.595 204.044 300.967 204.452C301.351 204.86 301.855 205.064 302.467 205.064C303.079 205.064 303.583 204.86 303.955 204.452C304.339 204.044 304.531 203.516 304.531 202.88ZM313.114 203.276H308.254C308.362 204.488 309.178 205.232 310.366 205.232C311.146 205.232 311.794 204.92 312.298 204.284L312.982 204.86C312.394 205.688 311.458 206.168 310.342 206.168C308.506 206.168 307.222 204.86 307.222 202.976C307.222 201.116 308.47 199.76 310.258 199.76C311.95 199.76 313.15 200.972 313.15 202.736C313.15 202.916 313.138 203.096 313.114 203.276ZM308.278 202.46H312.118C312.022 201.344 311.314 200.696 310.258 200.696C309.19 200.696 308.458 201.368 308.278 202.46ZM321.023 199.916V200.804C320.843 200.78 320.675 200.768 320.495 200.768C319.307 200.768 318.623 201.464 318.623 202.892V206H317.615V199.928H318.623V201.068C318.899 200.288 319.571 199.832 320.471 199.832C320.675 199.832 320.867 199.856 321.023 199.916ZM326.866 199.928H327.874V206H326.866V204.884C326.518 205.664 325.642 206.168 324.622 206.168C322.954 206.168 321.73 204.836 321.73 202.964C321.73 201.092 322.954 199.76 324.622 199.76C325.642 199.76 326.518 200.264 326.866 201.044V199.928ZM326.914 202.964C326.914 202.304 326.722 201.752 326.338 201.332C325.966 200.912 325.462 200.696 324.85 200.696C324.238 200.696 323.734 200.912 323.35 201.332C322.978 201.752 322.786 202.304 322.786 202.964C322.786 203.624 322.978 204.176 323.35 204.596C323.734 205.016 324.238 205.232 324.85 205.232C325.462 205.232 325.966 205.016 326.338 204.596C326.722 204.176 326.914 203.624 326.914 202.964ZM330.481 204.44V200.792H329.269V199.928H330.481V198.128H331.489V199.928H333.397V200.792H331.489V204.368C331.489 204.956 331.789 205.208 332.473 205.208C332.749 205.208 333.073 205.172 333.421 205.1V205.94C333.073 206.048 332.713 206.096 332.329 206.096C331.129 206.096 330.481 205.532 330.481 204.44ZM340.302 203.276H335.442C335.55 204.488 336.366 205.232 337.554 205.232C338.334 205.232 338.982 204.92 339.486 204.284L340.17 204.86C339.582 205.688 338.646 206.168 337.53 206.168C335.694 206.168 334.41 204.86 334.41 202.976C334.41 201.116 335.658 199.76 337.446 199.76C339.138 199.76 340.338 200.972 340.338 202.736C340.338 202.916 340.326 203.096 340.302 203.276ZM335.466 202.46H339.306C339.21 201.344 338.502 200.696 337.446 200.696C336.378 200.696 335.646 201.368 335.466 202.46Z" fill="#7B768C"/>
<rect x="81" y="66" width="752" height="389" rx="16" fill="#4C1EF5"/>
<rect x="81.5" y="66.5" width="751" height="388" rx="15.5" stroke="#373737" stroke-opacity="0.5"/>
<path d="M122.467 123.808H131.299V127H118.939V110.2H131.059V113.392H122.467V116.944H130.483V120.112H122.467V123.808ZM145.637 127H141.797L139.253 122.992L136.709 127H132.893L137.069 120.736L133.133 114.76H136.901L139.253 118.528L141.605 114.76H145.397L141.437 120.736L145.637 127ZM146.291 120.88C146.291 117.064 148.859 114.424 152.699 114.424C155.099 114.424 157.115 115.48 158.099 117.232L155.555 119.032C154.883 118 153.923 117.52 152.795 117.52C150.971 117.52 149.747 118.84 149.747 120.88C149.747 122.92 150.971 124.24 152.795 124.24C153.923 124.24 154.883 123.76 155.555 122.728L158.099 124.504C157.115 126.304 155.099 127.336 152.699 127.336C148.859 127.336 146.291 124.672 146.291 120.88ZM171.607 118.984V127H168.199V119.872C168.199 118.264 167.551 117.52 166.111 117.52C164.503 117.52 163.567 118.456 163.567 120.088V127H160.159V109.432H163.567V116.416C164.263 115.168 165.655 114.424 167.407 114.424C170.023 114.424 171.607 116.08 171.607 118.984ZM183.616 114.76H186.976V127H183.616V125.176C182.92 126.52 181.36 127.336 179.608 127.336C176.416 127.336 174.088 124.672 174.088 120.88C174.088 117.088 176.416 114.424 179.608 114.424C181.36 114.424 182.92 115.24 183.616 116.584V114.76ZM183.688 120.88C183.688 118.84 182.512 117.496 180.616 117.496C178.72 117.496 177.544 118.84 177.544 120.88C177.544 122.92 178.72 124.264 180.616 124.264C182.512 124.264 183.688 122.92 183.688 120.88ZM201.678 118.984V127H198.27V119.872C198.27 118.264 197.622 117.52 196.182 117.52C194.574 117.52 193.638 118.456 193.638 120.088V127H190.23V114.76H193.566V116.536C194.238 115.216 195.678 114.424 197.478 114.424C200.094 114.424 201.678 116.08 201.678 118.984ZM213.711 114.76H217.047V125.584C217.047 129.712 214.623 132.136 210.303 132.136C207.927 132.136 205.839 131.44 204.519 130.216L206.055 127.744C207.231 128.632 208.671 129.136 210.087 129.136C212.391 129.136 213.735 127.816 213.735 125.584V124.648C213.039 126.016 211.527 126.832 209.679 126.832C206.511 126.832 204.159 124.288 204.159 120.688C204.159 117.064 206.535 114.424 209.703 114.424C211.455 114.424 213.015 115.216 213.711 116.56V114.76ZM213.783 120.64C213.783 118.744 212.559 117.448 210.711 117.448C208.863 117.448 207.639 118.744 207.639 120.64C207.639 122.536 208.863 123.832 210.711 123.832C212.559 123.832 213.783 122.536 213.783 120.64ZM231.82 121.888H223.036C223.348 123.592 224.5 124.432 226.324 124.432C227.62 124.432 228.676 124 229.492 123.112L231.436 125.128C230.26 126.544 228.436 127.336 226.204 127.336C222.244 127.336 219.604 124.816 219.604 120.928C219.604 117.136 222.124 114.424 225.868 114.424C229.492 114.424 231.892 116.92 231.892 120.712C231.892 121.072 231.868 121.48 231.82 121.888ZM223.036 119.68H228.508C228.388 118.144 227.452 117.304 225.892 117.304C224.332 117.304 223.324 118.144 223.036 119.68ZM239.225 118.624C239.153 113.68 242.801 109.792 247.889 109.864C251.321 109.864 254.057 111.472 255.425 114.448L252.377 116.032C251.489 114.136 249.905 113.2 247.961 113.2C244.985 113.2 242.921 115.48 242.921 118.6C242.921 121.72 244.985 124 247.961 124C249.905 124 251.513 123.064 252.401 121.168L255.425 122.752C254.057 125.728 251.321 127.336 247.889 127.336C242.825 127.408 239.153 123.592 239.225 118.624ZM257.256 122.296V114.76H260.664V121.864C260.664 123.472 261.408 124.264 262.896 124.264C264.36 124.264 265.104 123.472 265.104 121.864V114.76H268.512V122.296C268.512 125.392 266.424 127.336 262.896 127.336C259.368 127.336 257.256 125.392 257.256 122.296ZM279.501 114.688V117.928C278.997 117.832 278.493 117.784 278.013 117.784C275.925 117.784 274.989 118.768 274.989 121.072V127H271.581V114.76H274.917V116.776C275.517 115.36 276.837 114.52 278.469 114.52C278.877 114.52 279.213 114.568 279.501 114.688ZM289.603 114.688V117.928C289.099 117.832 288.595 117.784 288.115 117.784C286.027 117.784 285.091 118.768 285.091 121.072V127H281.683V114.76H285.019V116.776C285.619 115.36 286.939 114.52 288.571 114.52C288.979 114.52 289.315 114.568 289.603 114.688ZM302.859 121.888H294.075C294.387 123.592 295.539 124.432 297.363 124.432C298.659 124.432 299.715 124 300.531 123.112L302.475 125.128C301.299 126.544 299.475 127.336 297.243 127.336C293.283 127.336 290.643 124.816 290.643 120.928C290.643 117.136 293.163 114.424 296.907 114.424C300.531 114.424 302.931 116.92 302.931 120.712C302.931 121.072 302.907 121.48 302.859 121.888ZM294.075 119.68H299.547C299.427 118.144 298.491 117.304 296.931 117.304C295.371 117.304 294.363 118.144 294.075 119.68ZM316.896 118.984V127H313.488V119.872C313.488 118.264 312.84 117.52 311.4 117.52C309.792 117.52 308.856 118.456 308.856 120.088V127H305.448V114.76H308.784V116.536C309.456 115.216 310.896 114.424 312.696 114.424C315.312 114.424 316.896 116.08 316.896 118.984ZM319.377 120.88C319.377 117.064 321.945 114.424 325.785 114.424C328.185 114.424 330.201 115.48 331.185 117.232L328.641 119.032C327.969 118 327.009 117.52 325.881 117.52C324.057 117.52 322.833 118.84 322.833 120.88C322.833 122.92 324.057 124.24 325.881 124.24C327.009 124.24 327.969 123.76 328.641 122.728L331.185 124.504C330.201 126.304 328.185 127.336 325.785 127.336C321.945 127.336 319.377 124.672 319.377 120.88ZM340.949 114.76H344.333V125.752C344.333 129.856 342.005 132.136 337.805 132.136C335.693 132.136 333.797 131.536 332.573 130.504L333.989 127.984C335.021 128.728 336.341 129.136 337.589 129.136C339.725 129.136 340.997 127.936 340.997 125.752V124.768C340.325 126.04 338.909 126.832 337.157 126.832C334.589 126.832 333.005 125.152 333.005 122.272V114.76H336.413V121.384C336.413 122.992 337.037 123.736 338.453 123.736C339.989 123.736 340.949 122.8 340.949 121.168V114.76Z" fill="url(#paint1_linear_46_14266)"/>
<path d="M122.335 152.512H125.587V155.824C124.927 156.676 123.703 157.168 122.263 157.168C119.575 157.204 117.775 155.332 117.811 152.824C117.775 150.268 119.647 148.408 122.107 148.432C123.559 148.432 124.747 149.032 125.419 150.076L124.615 150.652C124.087 149.848 123.211 149.416 122.119 149.416C120.187 149.416 118.915 150.784 118.915 152.836C118.915 154.912 120.235 156.184 122.251 156.184C123.247 156.184 124.111 155.884 124.555 155.44V153.484H122.335V152.512ZM132.97 154.276H128.11C128.218 155.488 129.034 156.232 130.222 156.232C131.002 156.232 131.65 155.92 132.154 155.284L132.838 155.86C132.25 156.688 131.314 157.168 130.198 157.168C128.362 157.168 127.078 155.86 127.078 153.976C127.078 152.116 128.326 150.76 130.114 150.76C131.806 150.76 133.006 151.972 133.006 153.736C133.006 153.916 132.994 154.096 132.97 154.276ZM128.134 153.46H131.974C131.878 152.344 131.17 151.696 130.114 151.696C129.046 151.696 128.314 152.368 128.134 153.46ZM135.032 155.44V151.792H133.82V150.928H135.032V149.128H136.04V150.928H137.948V151.792H136.04V155.368C136.04 155.956 136.34 156.208 137.024 156.208C137.3 156.208 137.624 156.172 137.972 156.1V156.94C137.624 157.048 137.264 157.096 136.88 157.096C135.68 157.096 135.032 156.532 135.032 155.44ZM142.544 155.44V151.792H141.332V150.928H142.544V149.128H143.552V150.928H145.46V151.792H143.552V155.368C143.552 155.956 143.852 156.208 144.536 156.208C144.812 156.208 145.136 156.172 145.484 156.1V156.94C145.136 157.048 144.776 157.096 144.392 157.096C143.192 157.096 142.544 156.532 142.544 155.44ZM152.301 153.112V157H151.293V153.352C151.293 152.2 150.861 151.696 149.901 151.696C148.809 151.696 148.029 152.368 148.029 153.388V157H147.021V148.216H148.029V151.96C148.365 151.192 149.145 150.76 150.141 150.76C151.521 150.76 152.301 151.612 152.301 153.112ZM159.876 154.276H155.016C155.124 155.488 155.94 156.232 157.128 156.232C157.908 156.232 158.556 155.92 159.06 155.284L159.744 155.86C159.156 156.688 158.22 157.168 157.104 157.168C155.268 157.168 153.984 155.86 153.984 153.976C153.984 152.116 155.232 150.76 157.02 150.76C158.712 150.76 159.912 151.972 159.912 153.736C159.912 153.916 159.9 154.096 159.876 154.276ZM155.04 153.46H158.88C158.784 152.344 158.076 151.696 157.02 151.696C155.952 151.696 155.22 152.368 155.04 153.46ZM170.521 153.964C170.521 155.836 169.297 157.168 167.641 157.168C166.621 157.168 165.757 156.664 165.385 155.884V157H164.377V148.216H165.385V152.044C165.757 151.264 166.621 150.76 167.641 150.76C169.297 150.76 170.521 152.092 170.521 153.964ZM169.465 153.964C169.465 153.304 169.273 152.752 168.889 152.332C168.517 151.912 168.013 151.696 167.401 151.696C166.789 151.696 166.285 151.912 165.901 152.332C165.529 152.752 165.337 153.304 165.337 153.964C165.337 154.624 165.529 155.176 165.901 155.596C166.285 156.016 166.789 156.232 167.401 156.232C168.013 156.232 168.517 156.016 168.889 155.596C169.273 155.176 169.465 154.624 169.465 153.964ZM177.712 154.276H172.852C172.96 155.488 173.776 156.232 174.964 156.232C175.744 156.232 176.392 155.92 176.896 155.284L177.58 155.86C176.992 156.688 176.056 157.168 174.94 157.168C173.104 157.168 171.82 155.86 171.82 153.976C171.82 152.116 173.068 150.76 174.856 150.76C176.548 150.76 177.748 151.972 177.748 153.736C177.748 153.916 177.736 154.096 177.712 154.276ZM172.876 153.46H176.716C176.62 152.344 175.912 151.696 174.856 151.696C173.788 151.696 173.056 152.368 172.876 153.46ZM178.871 155.848L179.603 155.308C180.035 155.932 180.743 156.256 181.571 156.256C182.435 156.256 182.963 155.896 182.963 155.332C182.963 154.9 182.663 154.648 181.895 154.468L180.935 154.252C179.687 153.964 179.087 153.412 179.087 152.56C179.087 151.492 179.999 150.76 181.475 150.76C182.531 150.76 183.383 151.132 183.875 151.792L183.179 152.392C182.783 151.924 182.171 151.672 181.415 151.672C180.551 151.672 180.095 151.996 180.095 152.536C180.095 152.932 180.371 153.16 181.187 153.352L182.255 153.592C183.455 153.868 183.971 154.408 183.971 155.26C183.971 156.412 183.071 157.168 181.583 157.168C180.347 157.168 179.351 156.664 178.871 155.848ZM186.02 155.44V151.792H184.808V150.928H186.02V149.128H187.028V150.928H188.936V151.792H187.028V155.368C187.028 155.956 187.328 156.208 188.012 156.208C188.288 156.208 188.612 156.172 188.96 156.1V156.94C188.612 157.048 188.252 157.096 187.868 157.096C186.668 157.096 186.02 156.532 186.02 155.44ZM198.724 154.276H193.864C193.972 155.488 194.788 156.232 195.976 156.232C196.756 156.232 197.404 155.92 197.908 155.284L198.592 155.86C198.004 156.688 197.068 157.168 195.952 157.168C194.116 157.168 192.832 155.86 192.832 153.976C192.832 152.116 194.08 150.76 195.868 150.76C197.56 150.76 198.76 151.972 198.76 153.736C198.76 153.916 198.748 154.096 198.724 154.276ZM193.888 153.46H197.728C197.632 152.344 196.924 151.696 195.868 151.696C194.8 151.696 194.068 152.368 193.888 153.46ZM205.202 157H204.062L202.346 154.552L200.618 157H199.478L201.674 153.88L199.598 150.928H200.726L202.346 153.244L203.954 150.928H205.082L203.006 153.88L205.202 157ZM205.945 153.964C205.945 152.116 207.217 150.76 209.065 150.76C210.181 150.76 211.093 151.228 211.609 152.08L210.817 152.632C210.445 152.02 209.833 151.696 209.077 151.696C208.465 151.696 207.961 151.9 207.577 152.32C207.193 152.74 207.001 153.28 207.001 153.964C207.001 154.648 207.193 155.188 207.577 155.608C207.961 156.028 208.465 156.232 209.077 156.232C209.833 156.232 210.445 155.908 210.817 155.296L211.609 155.848C211.093 156.7 210.181 157.168 209.065 157.168C207.217 157.168 205.945 155.812 205.945 153.964ZM218.395 153.112V157H217.387V153.352C217.387 152.2 216.955 151.696 215.995 151.696C214.903 151.696 214.123 152.368 214.123 153.388V157H213.115V148.216H214.123V151.96C214.459 151.192 215.239 150.76 216.235 150.76C217.615 150.76 218.395 151.612 218.395 153.112ZM225.214 150.928H226.222V157H225.214V155.884C224.866 156.664 223.99 157.168 222.97 157.168C221.302 157.168 220.078 155.836 220.078 153.964C220.078 152.092 221.302 150.76 222.97 150.76C223.99 150.76 224.866 151.264 225.214 152.044V150.928ZM225.262 153.964C225.262 153.304 225.07 152.752 224.686 152.332C224.314 151.912 223.81 151.696 223.198 151.696C222.586 151.696 222.082 151.912 221.698 152.332C221.326 152.752 221.134 153.304 221.134 153.964C221.134 154.624 221.326 155.176 221.698 155.596C222.082 156.016 222.586 156.232 223.198 156.232C223.81 156.232 224.314 156.016 224.686 155.596C225.07 155.176 225.262 154.624 225.262 153.964ZM233.665 153.112V157H232.657V153.352C232.657 152.2 232.225 151.696 231.265 151.696C230.173 151.696 229.393 152.368 229.393 153.388V157H228.385V150.928H229.393V151.96C229.729 151.192 230.509 150.76 231.505 150.76C232.885 150.76 233.665 151.612 233.665 153.112ZM240.483 150.928H241.491V156.304C241.491 158.416 240.351 159.568 238.335 159.568C237.195 159.568 236.199 159.196 235.575 158.56L236.151 157.816C236.715 158.332 237.483 158.632 238.335 158.632C239.727 158.632 240.483 157.84 240.483 156.304V155.752C240.135 156.52 239.283 157 238.239 157C236.571 157 235.347 155.716 235.347 153.88C235.347 152.044 236.571 150.76 238.239 150.76C239.259 150.76 240.135 151.252 240.483 152.032V150.928ZM240.531 153.88C240.531 153.244 240.339 152.716 239.955 152.308C239.583 151.9 239.079 151.696 238.467 151.696C237.855 151.696 237.351 151.9 236.967 152.308C236.595 152.716 236.403 153.244 236.403 153.88C236.403 154.516 236.595 155.044 236.967 155.452C237.351 155.86 237.855 156.064 238.467 156.064C239.079 156.064 239.583 155.86 239.955 155.452C240.339 155.044 240.531 154.516 240.531 153.88ZM249.114 154.276H244.254C244.362 155.488 245.178 156.232 246.366 156.232C247.146 156.232 247.794 155.92 248.298 155.284L248.982 155.86C248.394 156.688 247.458 157.168 246.342 157.168C244.506 157.168 243.222 155.86 243.222 153.976C243.222 152.116 244.47 150.76 246.258 150.76C247.95 150.76 249.15 151.972 249.15 153.736C249.15 153.916 249.138 154.096 249.114 154.276ZM244.278 153.46H248.118C248.022 152.344 247.314 151.696 246.258 151.696C245.19 151.696 244.458 152.368 244.278 153.46ZM257.023 150.916V151.804C256.843 151.78 256.675 151.768 256.495 151.768C255.307 151.768 254.623 152.464 254.623 153.892V157H253.615V150.928H254.623V152.068C254.899 151.288 255.571 150.832 256.471 150.832C256.675 150.832 256.867 150.856 257.023 150.916ZM262.866 150.928H263.874V157H262.866V155.884C262.518 156.664 261.642 157.168 260.622 157.168C258.954 157.168 257.73 155.836 257.73 153.964C257.73 152.092 258.954 150.76 260.622 150.76C261.642 150.76 262.518 151.264 262.866 152.044V150.928ZM262.914 153.964C262.914 153.304 262.722 152.752 262.338 152.332C261.966 151.912 261.462 151.696 260.85 151.696C260.238 151.696 259.734 151.912 259.35 152.332C258.978 152.752 258.786 153.304 258.786 153.964C258.786 154.624 258.978 155.176 259.35 155.596C259.734 156.016 260.238 156.232 260.85 156.232C261.462 156.232 261.966 156.016 262.338 155.596C262.722 155.176 262.914 154.624 262.914 153.964ZM266.481 155.44V151.792H265.269V150.928H266.481V149.128H267.489V150.928H269.397V151.792H267.489V155.368C267.489 155.956 267.789 156.208 268.473 156.208C268.749 156.208 269.073 156.172 269.421 156.1V156.94C269.073 157.048 268.713 157.096 268.329 157.096C267.129 157.096 266.481 156.532 266.481 155.44ZM276.302 154.276H271.442C271.55 155.488 272.366 156.232 273.554 156.232C274.334 156.232 274.982 155.92 275.486 155.284L276.17 155.86C275.582 156.688 274.646 157.168 273.53 157.168C271.694 157.168 270.41 155.86 270.41 153.976C270.41 152.116 271.658 150.76 273.446 150.76C275.138 150.76 276.338 151.972 276.338 153.736C276.338 153.916 276.326 154.096 276.302 154.276ZM271.466 153.46H275.306C275.21 152.344 274.502 151.696 273.446 151.696C272.378 151.696 271.646 152.368 271.466 153.46Z" fill="#7B768C"/>
<rect width="752" height="425" rx="16" fill="#04010F"/>
<rect x="0.5" y="0.5" width="751" height="424" rx="15.5" stroke="#373737" stroke-opacity="0.5"/>
<path d="M41.467 57.808H50.299V61H37.939V44.2H50.059V47.392H41.467V50.944H49.483V54.112H41.467V57.808ZM64.6375 61H60.7975L58.2535 56.992L55.7095 61H51.8935L56.0695 54.736L52.1335 48.76H55.9015L58.2535 52.528L60.6055 48.76H64.3975L60.4375 54.736L64.6375 61ZM65.2915 54.88C65.2915 51.064 67.8595 48.424 71.6995 48.424C74.0995 48.424 76.1155 49.48 77.0995 51.232L74.5555 53.032C73.8835 52 72.9235 51.52 71.7955 51.52C69.9715 51.52 68.7475 52.84 68.7475 54.88C68.7475 56.92 69.9715 58.24 71.7955 58.24C72.9235 58.24 73.8835 57.76 74.5555 56.728L77.0995 58.504C76.1155 60.304 74.0995 61.336 71.6995 61.336C67.8595 61.336 65.2915 58.672 65.2915 54.88ZM90.6073 52.984V61H87.1993V53.872C87.1993 52.264 86.5513 51.52 85.1113 51.52C83.5033 51.52 82.5673 52.456 82.5673 54.088V61H79.1593V43.432H82.5673V50.416C83.2633 49.168 84.6553 48.424 86.4073 48.424C89.0233 48.424 90.6073 50.08 90.6073 52.984ZM102.616 48.76H105.976V61H102.616V59.176C101.92 60.52 100.36 61.336 98.6083 61.336C95.4163 61.336 93.0883 58.672 93.0883 54.88C93.0883 51.088 95.4163 48.424 98.6083 48.424C100.36 48.424 101.92 49.24 102.616 50.584V48.76ZM102.688 54.88C102.688 52.84 101.512 51.496 99.6163 51.496C97.7203 51.496 96.5443 52.84 96.5443 54.88C96.5443 56.92 97.7203 58.264 99.6163 58.264C101.512 58.264 102.688 56.92 102.688 54.88ZM120.678 52.984V61H117.27V53.872C117.27 52.264 116.622 51.52 115.182 51.52C113.574 51.52 112.638 52.456 112.638 54.088V61H109.23V48.76H112.566V50.536C113.238 49.216 114.678 48.424 116.478 48.424C119.094 48.424 120.678 50.08 120.678 52.984ZM132.711 48.76H136.047V59.584C136.047 63.712 133.623 66.136 129.303 66.136C126.927 66.136 124.839 65.44 123.519 64.216L125.055 61.744C126.231 62.632 127.671 63.136 129.087 63.136C131.391 63.136 132.735 61.816 132.735 59.584V58.648C132.039 60.016 130.527 60.832 128.679 60.832C125.511 60.832 123.159 58.288 123.159 54.688C123.159 51.064 125.535 48.424 128.703 48.424C130.455 48.424 132.015 49.216 132.711 50.56V48.76ZM132.783 54.64C132.783 52.744 131.559 51.448 129.711 51.448C127.863 51.448 126.639 52.744 126.639 54.64C126.639 56.536 127.863 57.832 129.711 57.832C131.559 57.832 132.783 56.536 132.783 54.64ZM150.82 55.888H142.036C142.348 57.592 143.5 58.432 145.324 58.432C146.62 58.432 147.676 58 148.492 57.112L150.436 59.128C149.26 60.544 147.436 61.336 145.204 61.336C141.244 61.336 138.604 58.816 138.604 54.928C138.604 51.136 141.124 48.424 144.868 48.424C148.492 48.424 150.892 50.92 150.892 54.712C150.892 55.072 150.868 55.48 150.82 55.888ZM142.036 53.68H147.508C147.388 52.144 146.452 51.304 144.892 51.304C143.332 51.304 142.324 52.144 142.036 53.68ZM158.225 52.624C158.153 47.68 161.801 43.792 166.889 43.864C170.321 43.864 173.057 45.472 174.425 48.448L171.377 50.032C170.489 48.136 168.905 47.2 166.961 47.2C163.985 47.2 161.921 49.48 161.921 52.6C161.921 55.72 163.985 58 166.961 58C168.905 58 170.513 57.064 171.401 55.168L174.425 56.752C173.057 59.728 170.321 61.336 166.889 61.336C161.825 61.408 158.153 57.592 158.225 52.624ZM176.256 56.296V48.76H179.664V55.864C179.664 57.472 180.408 58.264 181.896 58.264C183.36 58.264 184.104 57.472 184.104 55.864V48.76H187.512V56.296C187.512 59.392 185.424 61.336 181.896 61.336C178.368 61.336 176.256 59.392 176.256 56.296ZM198.501 48.688V51.928C197.997 51.832 197.493 51.784 197.013 51.784C194.925 51.784 193.989 52.768 193.989 55.072V61H190.581V48.76H193.917V50.776C194.517 49.36 195.837 48.52 197.469 48.52C197.877 48.52 198.213 48.568 198.501 48.688ZM208.603 48.688V51.928C208.099 51.832 207.595 51.784 207.115 51.784C205.027 51.784 204.091 52.768 204.091 55.072V61H200.683V48.76H204.019V50.776C204.619 49.36 205.939 48.52 207.571 48.52C207.979 48.52 208.315 48.568 208.603 48.688ZM221.859 55.888H213.075C213.387 57.592 214.539 58.432 216.363 58.432C217.659 58.432 218.715 58 219.531 57.112L221.475 59.128C220.299 60.544 218.475 61.336 216.243 61.336C212.283 61.336 209.643 58.816 209.643 54.928C209.643 51.136 212.163 48.424 215.907 48.424C219.531 48.424 221.931 50.92 221.931 54.712C221.931 55.072 221.907 55.48 221.859 55.888ZM213.075 53.68H218.547C218.427 52.144 217.491 51.304 215.931 51.304C214.371 51.304 213.363 52.144 213.075 53.68ZM235.896 52.984V61H232.488V53.872C232.488 52.264 231.84 51.52 230.4 51.52C228.792 51.52 227.856 52.456 227.856 54.088V61H224.448V48.76H227.784V50.536C228.456 49.216 229.896 48.424 231.696 48.424C234.312 48.424 235.896 50.08 235.896 52.984ZM238.377 54.88C238.377 51.064 240.945 48.424 244.785 48.424C247.185 48.424 249.201 49.48 250.185 51.232L247.641 53.032C246.969 52 246.009 51.52 244.881 51.52C243.057 51.52 241.833 52.84 241.833 54.88C241.833 56.92 243.057 58.24 244.881 58.24C246.009 58.24 246.969 57.76 247.641 56.728L250.185 58.504C249.201 60.304 247.185 61.336 244.785 61.336C240.945 61.336 238.377 58.672 238.377 54.88ZM259.949 48.76H263.333V59.752C263.333 63.856 261.005 66.136 256.805 66.136C254.693 66.136 252.797 65.536 251.573 64.504L252.989 61.984C254.021 62.728 255.341 63.136 256.589 63.136C258.725 63.136 259.997 61.936 259.997 59.752V58.768C259.325 60.04 257.909 60.832 256.157 60.832C253.589 60.832 252.005 59.152 252.005 56.272V48.76H255.413V55.384C255.413 56.992 256.037 57.736 257.453 57.736C258.989 57.736 259.949 56.8 259.949 55.168V48.76Z" fill="url(#paint2_linear_46_14266)"/>
<path d="M41.335 86.512H44.587V89.824C43.927 90.676 42.703 91.168 41.263 91.168C38.575 91.204 36.775 89.332 36.811 86.824C36.775 84.268 38.647 82.408 41.107 82.432C42.559 82.432 43.747 83.032 44.419 84.076L43.615 84.652C43.087 83.848 42.211 83.416 41.119 83.416C39.187 83.416 37.915 84.784 37.915 86.836C37.915 88.912 39.235 90.184 41.251 90.184C42.247 90.184 43.111 89.884 43.555 89.44V87.484H41.335V86.512ZM51.9697 88.276H47.1097C47.2177 89.488 48.0337 90.232 49.2217 90.232C50.0017 90.232 50.6497 89.92 51.1537 89.284L51.8377 89.86C51.2497 90.688 50.3137 91.168 49.1977 91.168C47.3617 91.168 46.0777 89.86 46.0777 87.976C46.0777 86.116 47.3257 84.76 49.1137 84.76C50.8057 84.76 52.0057 85.972 52.0057 87.736C52.0057 87.916 51.9937 88.096 51.9697 88.276ZM47.1337 87.46H50.9737C50.8777 86.344 50.1697 85.696 49.1137 85.696C48.0457 85.696 47.3137 86.368 47.1337 87.46ZM54.0318 89.44V85.792H52.8198V84.928H54.0318V83.128H55.0398V84.928H56.9478V85.792H55.0398V89.368C55.0398 89.956 55.3398 90.208 56.0238 90.208C56.2998 90.208 56.6238 90.172 56.9718 90.1V90.94C56.6238 91.048 56.2638 91.096 55.8798 91.096C54.6798 91.096 54.0318 90.532 54.0318 89.44ZM61.5435 89.44V85.792H60.3315V84.928H61.5435V83.128H62.5515V84.928H64.4595V85.792H62.5515V89.368C62.5515 89.956 62.8515 90.208 63.5355 90.208C63.8115 90.208 64.1355 90.172 64.4835 90.1V90.94C64.1355 91.048 63.7755 91.096 63.3915 91.096C62.1915 91.096 61.5435 90.532 61.5435 89.44ZM71.3014 87.112V91H70.2934V87.352C70.2934 86.2 69.8614 85.696 68.9014 85.696C67.8094 85.696 67.0294 86.368 67.0294 87.388V91H66.0214V82.216H67.0294V85.96C67.3654 85.192 68.1454 84.76 69.1414 84.76C70.5214 84.76 71.3014 85.612 71.3014 87.112ZM78.8759 88.276H74.0159C74.1239 89.488 74.9399 90.232 76.1279 90.232C76.9079 90.232 77.5559 89.92 78.0599 89.284L78.7439 89.86C78.1559 90.688 77.2199 91.168 76.1039 91.168C74.2679 91.168 72.9839 89.86 72.9839 87.976C72.9839 86.116 74.2319 84.76 76.0199 84.76C77.7119 84.76 78.9119 85.972 78.9119 87.736C78.9119 87.916 78.8999 88.096 78.8759 88.276ZM74.0399 87.46H77.8799C77.7839 86.344 77.0759 85.696 76.0199 85.696C74.9519 85.696 74.2199 86.368 74.0399 87.46ZM89.5209 87.964C89.5209 89.836 88.2969 91.168 86.6409 91.168C85.6209 91.168 84.7569 90.664 84.3849 89.884V91H83.3769V82.216H84.3849V86.044C84.7569 85.264 85.6209 84.76 86.6409 84.76C88.2969 84.76 89.5209 86.092 89.5209 87.964ZM88.4649 87.964C88.4649 87.304 88.2729 86.752 87.8889 86.332C87.5169 85.912 87.0129 85.696 86.4009 85.696C85.7889 85.696 85.2849 85.912 84.9009 86.332C84.5289 86.752 84.3369 87.304 84.3369 87.964C84.3369 88.624 84.5289 89.176 84.9009 89.596C85.2849 90.016 85.7889 90.232 86.4009 90.232C87.0129 90.232 87.5169 90.016 87.8889 89.596C88.2729 89.176 88.4649 88.624 88.4649 87.964ZM96.7119 88.276H91.8519C91.9599 89.488 92.7759 90.232 93.9639 90.232C94.7439 90.232 95.3919 89.92 95.8959 89.284L96.5799 89.86C95.9919 90.688 95.0559 91.168 93.9399 91.168C92.1039 91.168 90.8199 89.86 90.8199 87.976C90.8199 86.116 92.0679 84.76 93.8559 84.76C95.5479 84.76 96.7479 85.972 96.7479 87.736C96.7479 87.916 96.7359 88.096 96.7119 88.276ZM91.8759 87.46H95.7159C95.6199 86.344 94.9119 85.696 93.8559 85.696C92.7879 85.696 92.0559 86.368 91.8759 87.46ZM97.8712 89.848L98.6032 89.308C99.0352 89.932 99.7432 90.256 100.571 90.256C101.435 90.256 101.963 89.896 101.963 89.332C101.963 88.9 101.663 88.648 100.895 88.468L99.9352 88.252C98.6872 87.964 98.0872 87.412 98.0872 86.56C98.0872 85.492 98.9992 84.76 100.475 84.76C101.531 84.76 102.383 85.132 102.875 85.792L102.179 86.392C101.783 85.924 101.171 85.672 100.415 85.672C99.5512 85.672 99.0952 85.996 99.0952 86.536C99.0952 86.932 99.3712 87.16 100.187 87.352L101.255 87.592C102.455 87.868 102.971 88.408 102.971 89.26C102.971 90.412 102.071 91.168 100.583 91.168C99.3472 91.168 98.3512 90.664 97.8712 89.848ZM105.02 89.44V85.792H103.808V84.928H105.02V83.128H106.028V84.928H107.936V85.792H106.028V89.368C106.028 89.956 106.328 90.208 107.012 90.208C107.288 90.208 107.612 90.172 107.96 90.1V90.94C107.612 91.048 107.252 91.096 106.868 91.096C105.668 91.096 105.02 90.532 105.02 89.44ZM117.724 88.276H112.864C112.972 89.488 113.788 90.232 114.976 90.232C115.756 90.232 116.404 89.92 116.908 89.284L117.592 89.86C117.004 90.688 116.068 91.168 114.952 91.168C113.116 91.168 111.832 89.86 111.832 87.976C111.832 86.116 113.08 84.76 114.868 84.76C116.56 84.76 117.76 85.972 117.76 87.736C117.76 87.916 117.748 88.096 117.724 88.276ZM112.888 87.46H116.728C116.632 86.344 115.924 85.696 114.868 85.696C113.8 85.696 113.068 86.368 112.888 87.46ZM124.202 91H123.062L121.346 88.552L119.618 91H118.478L120.674 87.88L118.598 84.928H119.726L121.346 87.244L122.954 84.928H124.082L122.006 87.88L124.202 91ZM124.945 87.964C124.945 86.116 126.217 84.76 128.065 84.76C129.181 84.76 130.093 85.228 130.609 86.08L129.817 86.632C129.445 86.02 128.833 85.696 128.077 85.696C127.465 85.696 126.961 85.9 126.577 86.32C126.193 86.74 126.001 87.28 126.001 87.964C126.001 88.648 126.193 89.188 126.577 89.608C126.961 90.028 127.465 90.232 128.077 90.232C128.833 90.232 129.445 89.908 129.817 89.296L130.609 89.848C130.093 90.7 129.181 91.168 128.065 91.168C126.217 91.168 124.945 89.812 124.945 87.964ZM137.395 87.112V91H136.387V87.352C136.387 86.2 135.955 85.696 134.995 85.696C133.903 85.696 133.123 86.368 133.123 87.388V91H132.115V82.216H133.123V85.96C133.459 85.192 134.239 84.76 135.235 84.76C136.615 84.76 137.395 85.612 137.395 87.112ZM144.214 84.928H145.222V91H144.214V89.884C143.866 90.664 142.99 91.168 141.97 91.168C140.302 91.168 139.078 89.836 139.078 87.964C139.078 86.092 140.302 84.76 141.97 84.76C142.99 84.76 143.866 85.264 144.214 86.044V84.928ZM144.262 87.964C144.262 87.304 144.07 86.752 143.686 86.332C143.314 85.912 142.81 85.696 142.198 85.696C141.586 85.696 141.082 85.912 140.698 86.332C140.326 86.752 140.134 87.304 140.134 87.964C140.134 88.624 140.326 89.176 140.698 89.596C141.082 90.016 141.586 90.232 142.198 90.232C142.81 90.232 143.314 90.016 143.686 89.596C144.07 89.176 144.262 88.624 144.262 87.964ZM152.665 87.112V91H151.657V87.352C151.657 86.2 151.225 85.696 150.265 85.696C149.173 85.696 148.393 86.368 148.393 87.388V91H147.385V84.928H148.393V85.96C148.729 85.192 149.509 84.76 150.505 84.76C151.885 84.76 152.665 85.612 152.665 87.112ZM159.483 84.928H160.491V90.304C160.491 92.416 159.351 93.568 157.335 93.568C156.195 93.568 155.199 93.196 154.575 92.56L155.151 91.816C155.715 92.332 156.483 92.632 157.335 92.632C158.727 92.632 159.483 91.84 159.483 90.304V89.752C159.135 90.52 158.283 91 157.239 91C155.571 91 154.347 89.716 154.347 87.88C154.347 86.044 155.571 84.76 157.239 84.76C158.259 84.76 159.135 85.252 159.483 86.032V84.928ZM159.531 87.88C159.531 87.244 159.339 86.716 158.955 86.308C158.583 85.9 158.079 85.696 157.467 85.696C156.855 85.696 156.351 85.9 155.967 86.308C155.595 86.716 155.403 87.244 155.403 87.88C155.403 88.516 155.595 89.044 155.967 89.452C156.351 89.86 156.855 90.064 157.467 90.064C158.079 90.064 158.583 89.86 158.955 89.452C159.339 89.044 159.531 88.516 159.531 87.88ZM168.114 88.276H163.254C163.362 89.488 164.178 90.232 165.366 90.232C166.146 90.232 166.794 89.92 167.298 89.284L167.982 89.86C167.394 90.688 166.458 91.168 165.342 91.168C163.506 91.168 162.222 89.86 162.222 87.976C162.222 86.116 163.47 84.76 165.258 84.76C166.95 84.76 168.15 85.972 168.15 87.736C168.15 87.916 168.138 88.096 168.114 88.276ZM163.278 87.46H167.118C167.022 86.344 166.314 85.696 165.258 85.696C164.19 85.696 163.458 86.368 163.278 87.46ZM176.023 84.916V85.804C175.843 85.78 175.675 85.768 175.495 85.768C174.307 85.768 173.623 86.464 173.623 87.892V91H172.615V84.928H173.623V86.068C173.899 85.288 174.571 84.832 175.471 84.832C175.675 84.832 175.867 84.856 176.023 84.916ZM181.866 84.928H182.874V91H181.866V89.884C181.518 90.664 180.642 91.168 179.622 91.168C177.954 91.168 176.73 89.836 176.73 87.964C176.73 86.092 177.954 84.76 179.622 84.76C180.642 84.76 181.518 85.264 181.866 86.044V84.928ZM181.914 87.964C181.914 87.304 181.722 86.752 181.338 86.332C180.966 85.912 180.462 85.696 179.85 85.696C179.238 85.696 178.734 85.912 178.35 86.332C177.978 86.752 177.786 87.304 177.786 87.964C177.786 88.624 177.978 89.176 178.35 89.596C178.734 90.016 179.238 90.232 179.85 90.232C180.462 90.232 180.966 90.016 181.338 89.596C181.722 89.176 181.914 88.624 181.914 87.964ZM185.481 89.44V85.792H184.269V84.928H185.481V83.128H186.489V84.928H188.397V85.792H186.489V89.368C186.489 89.956 186.789 90.208 187.473 90.208C187.749 90.208 188.073 90.172 188.421 90.1V90.94C188.073 91.048 187.713 91.096 187.329 91.096C186.129 91.096 185.481 90.532 185.481 89.44ZM195.302 88.276H190.442C190.55 89.488 191.366 90.232 192.554 90.232C193.334 90.232 193.982 89.92 194.486 89.284L195.17 89.86C194.582 90.688 193.646 91.168 192.53 91.168C190.694 91.168 189.41 89.86 189.41 87.976C189.41 86.116 190.658 84.76 192.446 84.76C194.138 84.76 195.338 85.972 195.338 87.736C195.338 87.916 195.326 88.096 195.302 88.276ZM190.466 87.46H194.306C194.21 86.344 193.502 85.696 192.446 85.696C191.378 85.696 190.646 86.368 190.466 87.46Z" fill="#7B768C"/>
<rect x="36" y="122" width="232" height="60" rx="8" fill="#04010F"/>
<rect x="36.5" y="122.5" width="231" height="59" rx="7.5" stroke="#373737" stroke-opacity="0.5"/>
<path d="M45.1076 140.416V134.2H46.8856V140.276C46.8856 141.746 47.6976 142.516 49.2096 142.516C50.7216 142.516 51.5336 141.746 51.5336 140.276V134.2H53.3116V140.416C53.3116 142.81 51.6736 144.196 49.2096 144.196C46.7456 144.196 45.1076 142.81 45.1076 140.416ZM54.8963 141.984L56.1843 141.06C56.7583 142.054 57.7943 142.6 59.0683 142.6C60.3003 142.6 61.0003 142.082 61.0003 141.256C61.0003 140.626 60.5803 140.248 59.5163 139.982L57.9343 139.604C56.1003 139.17 55.1763 138.246 55.1763 136.86C55.1763 135.18 56.5763 134.004 58.8443 134.004C60.5943 134.004 61.9943 134.69 62.5683 135.796L61.2943 136.734C60.7483 135.992 59.8943 135.6 58.8163 135.6C57.6403 135.6 56.9823 136.062 56.9823 136.832C56.9823 137.406 57.3883 137.784 58.5083 138.05L60.1183 138.428C61.9663 138.876 62.8063 139.772 62.8063 141.172C62.8063 142.978 61.4062 144.196 59.0123 144.196C57.0523 144.196 55.5543 143.37 54.8963 141.984ZM73.26 139.1C73.26 142.152 71.272 144 68.43 144H64.566V134.2H68.43C71.272 134.2 73.26 136.048 73.26 139.1ZM71.398 139.1C71.398 136.986 70.32 135.852 68.43 135.852H66.344V142.348H68.43C70.32 142.348 71.398 141.214 71.398 139.1Z" fill="white"/>
<path d="M85 138L89 142L93 138" stroke="white" stroke-width="2" stroke-linecap="round" stroke-linejoin="round"/>
<path d="M45.4678 163.988V158.6H46.5238V163.892C46.5238 165.416 47.3158 166.184 48.8878 166.184C50.4598 166.184 51.2518 165.416 51.2518 163.892V158.6H52.3078V163.988C52.3078 165.992 51.0118 167.168 48.8878 167.168C46.7638 167.168 45.4678 165.992 45.4678 163.988ZM59.7936 163.112V167H58.7856V163.352C58.7856 162.2 58.3536 161.696 57.3936 161.696C56.3016 161.696 55.5216 162.368 55.5216 163.388V167H54.5136V160.928H55.5216V161.96C55.8576 161.192 56.6376 160.76 57.6336 160.76C59.0136 160.76 59.7936 161.612 59.7936 163.112ZM61.7281 158.96C61.7281 158.564 62.0281 158.264 62.4241 158.264C62.8201 158.264 63.1201 158.564 63.1201 158.96C63.1201 159.356 62.8201 159.656 62.4241 159.656C62.0281 159.656 61.7281 159.356 61.7281 158.96ZM61.9201 167V160.928H62.9281V167H61.9201ZM65.5396 165.44V161.792H64.3276V160.928H65.5396V159.128H66.5476V160.928H68.4556V161.792H66.5476V165.368C66.5476 165.956 66.8476 166.208 67.5316 166.208C67.8076 166.208 68.1316 166.172 68.4796 166.1V166.94C68.1316 167.048 67.7716 167.096 67.3876 167.096C66.1876 167.096 65.5396 166.532 65.5396 165.44ZM75.3603 164.276H70.5003C70.6083 165.488 71.4243 166.232 72.6123 166.232C73.3923 166.232 74.0403 165.92 74.5443 165.284L75.2283 165.86C74.6403 166.688 73.7043 167.168 72.5883 167.168C70.7523 167.168 69.4683 165.86 69.4683 163.976C69.4683 162.116 70.7163 160.76 72.5043 160.76C74.1963 160.76 75.3963 161.972 75.3963 163.736C75.3963 163.916 75.3843 164.096 75.3603 164.276ZM70.5243 163.46H74.3643C74.2683 162.344 73.5603 161.696 72.5043 161.696C71.4363 161.696 70.7043 162.368 70.5243 163.46ZM81.7996 158.216H82.8076V167H81.7996V165.884C81.4276 166.664 80.5636 167.168 79.5436 167.168C77.8876 167.168 76.6636 165.836 76.6636 163.964C76.6636 162.092 77.8876 160.76 79.5436 160.76C80.5636 160.76 81.4276 161.264 81.7996 162.044V158.216ZM81.8476 163.964C81.8476 163.304 81.6556 162.752 81.2716 162.332C80.8996 161.912 80.3956 161.696 79.7836 161.696C79.1716 161.696 78.6676 161.912 78.2836 162.332C77.9116 162.752 77.7196 163.304 77.7196 163.964C77.7196 164.624 77.9116 165.176 78.2836 165.596C78.6676 166.016 79.1716 166.232 79.7836 166.232C80.3956 166.232 80.8996 166.016 81.2716 165.596C81.6556 165.176 81.8476 164.624 81.8476 163.964ZM87.2083 165.212L88.0603 164.72C88.5043 165.68 89.4163 166.208 90.6163 166.208C91.8763 166.208 92.6443 165.632 92.6443 164.732C92.6443 164.048 92.2003 163.616 91.1563 163.364L89.8003 163.04C88.2402 162.668 87.4603 161.912 87.4603 160.796C87.4603 159.416 88.6243 158.432 90.4843 158.432C91.9723 158.432 93.1123 159.056 93.5323 159.968L92.7043 160.472C92.3083 159.788 91.5043 159.392 90.4603 159.392C89.2603 159.392 88.5403 159.908 88.5403 160.784C88.5403 161.456 88.9603 161.852 90.0523 162.104L91.4083 162.428C93.0283 162.812 93.7363 163.544 93.7363 164.696C93.7363 166.16 92.5723 167.168 90.6043 167.168C88.9123 167.168 87.6883 166.448 87.2083 165.212ZM95.8092 165.44V161.792H94.5972V160.928H95.8092V159.128H96.8172V160.928H98.7252V161.792H96.8172V165.368C96.8172 165.956 97.1172 166.208 97.8012 166.208C98.0772 166.208 98.4012 166.172 98.7492 166.1V166.94C98.4012 167.048 98.0412 167.096 97.6572 167.096C96.4572 167.096 95.8092 166.532 95.8092 165.44ZM104.874 160.928H105.882V167H104.874V165.884C104.526 166.664 103.65 167.168 102.63 167.168C100.962 167.168 99.7378 165.836 99.7378 163.964C99.7378 162.092 100.962 160.76 102.63 160.76C103.65 160.76 104.526 161.264 104.874 162.044V160.928ZM104.922 163.964C104.922 163.304 104.73 162.752 104.346 162.332C103.974 161.912 103.47 161.696 102.858 161.696C102.246 161.696 101.742 161.912 101.358 162.332C100.986 162.752 100.794 163.304 100.794 163.964C100.794 164.624 100.986 165.176 101.358 165.596C101.742 166.016 102.246 166.232 102.858 166.232C103.47 166.232 103.974 166.016 104.346 165.596C104.73 165.176 104.922 164.624 104.922 163.964ZM108.489 165.44V161.792H107.277V160.928H108.489V159.128H109.497V160.928H111.405V161.792H109.497V165.368C109.497 165.956 109.797 166.208 110.481 166.208C110.757 166.208 111.081 166.172 111.429 166.1V166.94C111.081 167.048 110.721 167.096 110.337 167.096C109.137 167.096 108.489 166.532 108.489 165.44ZM118.31 164.276H113.45C113.558 165.488 114.374 166.232 115.562 166.232C116.342 166.232 116.99 165.92 117.494 165.284L118.178 165.86C117.59 166.688 116.654 167.168 115.538 167.168C113.702 167.168 112.418 165.86 112.418 163.976C112.418 162.116 113.666 160.76 115.454 160.76C117.146 160.76 118.346 161.972 118.346 163.736C118.346 163.916 118.334 164.096 118.31 164.276ZM113.474 163.46H117.314C117.218 162.344 116.51 161.696 115.454 161.696C114.386 161.696 113.654 162.368 113.474 163.46ZM130.298 162.8C130.298 165.404 128.606 167 126.17 167H122.978V158.6H126.17C128.606 158.6 130.298 160.196 130.298 162.8ZM129.194 162.8C129.194 160.748 128.054 159.584 126.17 159.584H124.034V166.016H126.17C128.054 166.016 129.194 164.852 129.194 162.8ZM131.718 163.964C131.694 162.248 133.002 160.724 134.838 160.76C136.674 160.724 137.982 162.248 137.958 163.964C137.982 165.68 136.674 167.204 134.838 167.168C133.002 167.204 131.694 165.68 131.718 163.964ZM136.902 163.964C136.902 163.304 136.71 162.752 136.326 162.332C135.954 161.912 135.45 161.696 134.838 161.696C134.226 161.696 133.722 161.912 133.338 162.332C132.966 162.752 132.774 163.304 132.774 163.964C132.774 164.624 132.966 165.176 133.338 165.596C133.722 166.016 134.226 166.232 134.838 166.232C135.45 166.232 135.954 166.016 136.326 165.596C136.71 165.176 136.902 164.624 136.902 163.964ZM139.685 167V158.216H140.693V167H139.685ZM142.85 167V158.216H143.858V167H142.85ZM150.718 160.928H151.726V167H150.718V165.884C150.37 166.664 149.494 167.168 148.474 167.168C146.806 167.168 145.582 165.836 145.582 163.964C145.582 162.092 146.806 160.76 148.474 160.76C149.494 160.76 150.37 161.264 150.718 162.044V160.928ZM150.766 163.964C150.766 163.304 150.574 162.752 150.19 162.332C149.818 161.912 149.314 161.696 148.702 161.696C148.09 161.696 147.586 161.912 147.202 162.332C146.83 162.752 146.638 163.304 146.638 163.964C146.638 164.624 146.83 165.176 147.202 165.596C147.586 166.016 148.09 166.232 148.702 166.232C149.314 166.232 149.818 166.016 150.19 165.596C150.574 165.176 150.766 164.624 150.766 163.964ZM157.297 160.916V161.804C157.117 161.78 156.949 161.768 156.769 161.768C155.581 161.768 154.897 162.464 154.897 163.892V167H153.889V160.928H154.897V162.068C155.173 161.288 155.845 160.832 156.745 160.832C156.949 160.832 157.141 160.856 157.297 160.916Z" fill="#7B768C"/>
<rect x="284" y="122" width="434" height="60" rx="8" fill="#04010F"/>
<rect x="284.5" y="122.5" width="433" height="59" rx="7.5" stroke="#373737" stroke-opacity="0.5"/>
<path d="M653.972 153.816C653.972 157.08 651.548 159.336 647.804 159.336C645.5 159.336 643.604 158.52 642.14 156.912L643.412 155.592C644.732 156.864 646.124 157.44 647.756 157.44C650.348 157.44 651.884 156.048 651.884 153.816C651.884 151.704 650.54 150.456 648.236 150.456C646.94 150.456 645.764 150.84 644.708 151.608L643.004 150.6V142.2H653.012V144.096H644.996V149.52C645.956 148.92 647.084 148.608 648.356 148.608C651.62 148.608 653.972 150.576 653.972 153.816ZM656.154 162.576L657.306 156.096H659.418L657.738 162.576H656.154ZM661.114 150.6C661.114 145.104 663.706 141.864 667.858 141.864C672.01 141.864 674.602 145.104 674.602 150.6C674.602 156.096 672.01 159.336 667.858 159.336C663.706 159.336 661.114 156.096 661.114 150.6ZM672.442 150.6C672.442 146.064 670.834 143.784 667.858 143.784C664.882 143.784 663.274 146.064 663.274 150.6C663.274 155.136 664.882 157.416 667.858 157.416C670.834 157.416 672.442 155.136 672.442 150.6ZM677.965 150.6C677.965 145.104 680.557 141.864 684.709 141.864C688.861 141.864 691.453 145.104 691.453 150.6C691.453 156.096 688.861 159.336 684.709 159.336C680.557 159.336 677.965 156.096 677.965 150.6ZM689.293 150.6C689.293 146.064 687.685 143.784 684.709 143.784C681.733 143.784 680.125 146.064 680.125 150.6C680.125 155.136 681.733 157.416 684.709 157.416C687.685 157.416 689.293 155.136 689.293 150.6ZM694.817 150.6C694.817 145.104 697.409 141.864 701.561 141.864C705.713 141.864 708.305 145.104 708.305 150.6C708.305 156.096 705.713 159.336 701.561 159.336C697.409 159.336 694.817 156.096 694.817 150.6ZM706.145 150.6C706.145 146.064 704.537 143.784 701.561 143.784C698.585 143.784 696.977 146.064 696.977 150.6C696.977 155.136 698.585 157.416 701.561 157.416C704.537 157.416 706.145 155.136 706.145 150.6Z" fill="white"/>
<rect x="36" y="198" width="232" height="60" rx="8" fill="#04010F"/>
<rect x="36.5" y="198.5" width="231" height="59" rx="7.5" stroke="#373737" stroke-opacity="0.5"/>
<path d="M50.0701 214.526H54.0181V218.572C53.2341 219.58 51.7361 220.196 50.0001 220.196C46.8361 220.224 44.7221 218.04 44.7641 215.128C44.7221 212.188 46.8921 209.976 49.8461 210.004C51.5681 210.004 52.9821 210.718 53.7661 211.908L52.3801 212.902C51.8061 212.104 50.9241 211.67 49.8461 211.67C47.9141 211.67 46.6261 213.07 46.6261 215.142C46.6261 217.27 47.9421 218.558 50.0701 218.558C51.0221 218.558 51.8341 218.292 52.3521 217.886V216.052H50.0701V214.526ZM63.9086 217.354C63.9086 218.978 62.7186 220 60.8006 220H56.0826V210.2H60.4646C61.4026 210.2 62.1586 210.438 62.7046 210.9C63.2646 211.362 63.5446 211.978 63.5446 212.748C63.5446 213.868 62.9286 214.638 61.8506 214.96C63.1526 215.24 63.9086 216.08 63.9086 217.354ZM60.0726 211.74H57.8466V214.246H60.0726C61.2066 214.246 61.7246 213.826 61.7246 212.986C61.7246 212.16 61.2066 211.74 60.0726 211.74ZM62.0606 217.116C62.0606 216.22 61.5146 215.772 60.4086 215.772H57.8466V218.46H60.4086C61.5146 218.46 62.0606 218.012 62.0606 217.116ZM73.419 213.378C73.419 215.436 72.187 216.556 69.891 216.556H67.595V220H65.817V210.2H69.891C72.173 210.2 73.419 211.348 73.419 213.378ZM71.557 213.378C71.557 212.3 71.053 211.838 69.779 211.838H67.595V214.946H69.779C71.053 214.946 71.557 214.456 71.557 213.378Z" fill="white"/>
<path d="M85 214L89 218L93 214" stroke="white" stroke-width="2" stroke-linecap="round" stroke-linejoin="round"/>
<path d="M51.747 240.732C51.747 242.112 50.727 243 49.083 243H45.291V234.6H48.795C50.415 234.6 51.435 235.464 51.435 236.772C51.435 237.684 50.931 238.344 50.031 238.668C51.123 238.92 51.747 239.664 51.747 240.732ZM48.795 235.56H46.347V238.224H48.795C49.815 238.224 50.355 237.744 50.355 236.892C50.355 236.04 49.815 235.56 48.795 235.56ZM50.643 240.612C50.643 239.712 50.103 239.184 49.083 239.184H46.347V242.04H49.083C50.103 242.04 50.643 241.512 50.643 240.612ZM56.9802 236.916V237.804C56.8002 237.78 56.6322 237.768 56.4522 237.768C55.2642 237.768 54.5802 238.464 54.5802 239.892V243H53.5722V236.928H54.5802V238.068C54.8562 237.288 55.5282 236.832 56.4282 236.832C56.6322 236.832 56.8242 236.856 56.9802 236.916ZM58.2438 234.96C58.2438 234.564 58.5438 234.264 58.9398 234.264C59.3358 234.264 59.6358 234.564 59.6358 234.96C59.6358 235.356 59.3358 235.656 58.9398 235.656C58.5438 235.656 58.2438 235.356 58.2438 234.96ZM58.4358 243V236.928H59.4438V243H58.4358ZM62.0553 241.44V237.792H60.8433V236.928H62.0553V235.128H63.0633V236.928H64.9713V237.792H63.0633V241.368C63.0633 241.956 63.3633 242.208 64.0473 242.208C64.3233 242.208 64.6473 242.172 64.9953 242.1V242.94C64.6473 243.048 64.2873 243.096 63.9033 243.096C62.7033 243.096 62.0553 242.532 62.0553 241.44ZM66.3531 234.96C66.3531 234.564 66.6531 234.264 67.0491 234.264C67.4451 234.264 67.7451 234.564 67.7451 234.96C67.7451 235.356 67.4451 235.656 67.0491 235.656C66.6531 235.656 66.3531 235.356 66.3531 234.96ZM66.5451 243V236.928H67.5531V243H66.5451ZM69.1446 241.848L69.8766 241.308C70.3086 241.932 71.0166 242.256 71.8446 242.256C72.7086 242.256 73.2366 241.896 73.2366 241.332C73.2366 240.9 72.9366 240.648 72.1686 240.468L71.2086 240.252C69.9606 239.964 69.3606 239.412 69.3606 238.56C69.3606 237.492 70.2726 236.76 71.7486 236.76C72.8046 236.76 73.6566 237.132 74.1486 237.792L73.4526 238.392C73.0566 237.924 72.4446 237.672 71.6886 237.672C70.8246 237.672 70.3686 237.996 70.3686 238.536C70.3686 238.932 70.6446 239.16 71.4606 239.352L72.5286 239.592C73.7286 239.868 74.2446 240.408 74.2446 241.26C74.2446 242.412 73.3446 243.168 71.8566 243.168C70.6206 243.168 69.6246 242.664 69.1446 241.848ZM81.153 239.112V243H80.145V239.352C80.145 238.2 79.713 237.696 78.753 237.696C77.661 237.696 76.881 238.368 76.881 239.388V243H75.873V234.216H76.881V237.96C77.217 237.192 77.997 236.76 78.993 236.76C80.373 236.76 81.153 237.612 81.153 239.112ZM92.4651 237.204C92.4651 238.824 91.4211 239.796 89.6331 239.796H87.2571V243H86.2011V234.6H89.6331C91.4211 234.6 92.4651 235.584 92.4651 237.204ZM91.3611 237.204C91.3611 236.064 90.8331 235.572 89.5491 235.572H87.2571V238.836H89.5491C90.8331 238.836 91.3611 238.344 91.3611 237.204ZM93.4996 239.964C93.4756 238.248 94.7836 236.724 96.6196 236.76C98.4556 236.724 99.7636 238.248 99.7396 239.964C99.7636 241.68 98.4556 243.204 96.6196 243.168C94.7836 243.204 93.4756 241.68 93.4996 239.964ZM98.6836 239.964C98.6836 239.304 98.4916 238.752 98.1076 238.332C97.7356 237.912 97.2316 237.696 96.6196 237.696C96.0076 237.696 95.5036 237.912 95.1196 238.332C94.7476 238.752 94.5556 239.304 94.5556 239.964C94.5556 240.624 94.7476 241.176 95.1196 241.596C95.5036 242.016 96.0076 242.232 96.6196 242.232C97.2316 242.232 97.7356 242.016 98.1076 241.596C98.4916 241.176 98.6836 240.624 98.6836 239.964ZM101.347 240.732V236.928H102.355V240.672C102.355 241.68 102.943 242.232 103.963 242.232C104.983 242.232 105.571 241.68 105.571 240.672V236.928H106.579V240.732C106.579 242.172 105.535 243.168 103.963 243.168C102.391 243.168 101.347 242.172 101.347 240.732ZM113.895 239.112V243H112.887V239.352C112.887 238.2 112.455 237.696 111.495 237.696C110.403 237.696 109.623 238.368 109.623 239.388V243H108.615V236.928H109.623V237.96C109.959 237.192 110.739 236.76 111.735 236.76C113.115 236.76 113.895 237.612 113.895 239.112ZM120.714 234.216H121.722V243H120.714V241.884C120.342 242.664 119.478 243.168 118.458 243.168C116.802 243.168 115.578 241.836 115.578 239.964C115.578 238.092 116.802 236.76 118.458 236.76C119.478 236.76 120.342 237.264 120.714 238.044V234.216ZM120.762 239.964C120.762 239.304 120.57 238.752 120.186 238.332C119.814 237.912 119.31 237.696 118.698 237.696C118.086 237.696 117.582 237.912 117.198 238.332C116.826 238.752 116.634 239.304 116.634 239.964C116.634 240.624 116.826 241.176 117.198 241.596C117.582 242.016 118.086 242.232 118.698 242.232C119.31 242.232 119.814 242.016 120.186 241.596C120.57 241.176 120.762 240.624 120.762 239.964ZM123.309 241.848L124.041 241.308C124.473 241.932 125.181 242.256 126.009 242.256C126.873 242.256 127.401 241.896 127.401 241.332C127.401 240.9 127.101 240.648 126.333 240.468L125.373 240.252C124.125 239.964 123.525 239.412 123.525 238.56C123.525 237.492 124.437 236.76 125.913 236.76C126.969 236.76 127.821 237.132 128.313 237.792L127.617 238.392C127.221 237.924 126.609 237.672 125.853 237.672C124.989 237.672 124.533 237.996 124.533 238.536C124.533 238.932 124.809 239.16 125.625 239.352L126.693 239.592C127.893 239.868 128.409 240.408 128.409 241.26C128.409 242.412 127.509 243.168 126.021 243.168C124.785 243.168 123.789 242.664 123.309 241.848Z" fill="#7B768C"/>
<rect x="284" y="198" width="434" height="60" rx="8" fill="#04010F"/>
<rect x="284.5" y="198.5" width="433" height="59" rx="7.5" stroke="#373737" stroke-opacity="0.5"/>
<path d="M660.779 230.176C660.779 233.272 658.451 235.336 654.731 235.336C652.331 235.336 650.243 234.472 648.779 232.84L650.051 231.472C651.323 232.792 652.859 233.44 654.707 233.44C657.227 233.44 658.667 232.168 658.667 230.128C658.667 228.016 657.155 226.984 653.531 226.984H652.547V225.544L657.707 220.072H649.643V218.2H660.179V219.928L655.043 225.376C658.619 225.544 660.779 227.2 660.779 230.176ZM674.991 229.816C674.991 233.08 672.567 235.336 668.823 235.336C666.519 235.336 664.623 234.52 663.159 232.912L664.431 231.592C665.751 232.864 667.143 233.44 668.775 233.44C671.367 233.44 672.903 232.048 672.903 229.816C672.903 227.704 671.559 226.456 669.255 226.456C667.959 226.456 666.783 226.84 665.727 227.608L664.023 226.6V218.2H674.031V220.096H666.015V225.52C666.975 224.92 668.103 224.608 669.375 224.608C672.639 224.608 674.991 226.576 674.991 229.816ZM677.774 226.6C677.774 221.104 680.366 217.864 684.518 217.864C688.67 217.864 691.262 221.104 691.262 226.6C691.262 232.096 688.67 235.336 684.518 235.336C680.366 235.336 677.774 232.096 677.774 226.6ZM689.102 226.6C689.102 222.064 687.494 219.784 684.518 219.784C681.542 219.784 679.934 222.064 679.934 226.6C679.934 231.136 681.542 233.416 684.518 233.416C687.494 233.416 689.102 231.136 689.102 226.6ZM694.625 226.6C694.625 221.104 697.217 217.864 701.369 217.864C705.521 217.864 708.113 221.104 708.113 226.6C708.113 232.096 705.521 235.336 701.369 235.336C697.217 235.336 694.625 232.096 694.625 226.6ZM705.953 226.6C705.953 222.064 704.345 219.784 701.369 219.784C698.393 219.784 696.785 222.064 696.785 226.6C696.785 231.136 698.393 233.416 701.369 233.416C704.345 233.416 705.953 231.136 705.953 226.6Z" fill="white"/>
<rect x="36" y="298" width="232" height="52" rx="8" fill="#4C1EF5"/>
<path d="M112.568 326.606H119.192V329H109.922V316.4H119.012V318.794H112.568V321.458H118.58V323.834H112.568V326.606ZM129.946 329H127.066L125.158 325.994L123.25 329H120.388L123.52 324.302L120.568 319.82H123.394L125.158 322.646L126.922 319.82H129.766L126.796 324.302L129.946 329ZM130.436 324.41C130.436 321.548 132.362 319.568 135.242 319.568C137.042 319.568 138.554 320.36 139.292 321.674L137.384 323.024C136.88 322.25 136.16 321.89 135.314 321.89C133.946 321.89 133.028 322.88 133.028 324.41C133.028 325.94 133.946 326.93 135.314 326.93C136.16 326.93 136.88 326.57 137.384 325.796L139.292 327.128C138.554 328.478 137.042 329.252 135.242 329.252C132.362 329.252 130.436 327.254 130.436 324.41ZM149.423 322.988V329H146.867V323.654C146.867 322.448 146.381 321.89 145.301 321.89C144.095 321.89 143.393 322.592 143.393 323.816V329H140.837V315.824H143.393V321.062C143.915 320.126 144.959 319.568 146.273 319.568C148.235 319.568 149.423 320.81 149.423 322.988ZM158.43 319.82H160.95V329H158.43V327.632C157.908 328.64 156.738 329.252 155.424 329.252C153.03 329.252 151.284 327.254 151.284 324.41C151.284 321.566 153.03 319.568 155.424 319.568C156.738 319.568 157.908 320.18 158.43 321.188V319.82ZM158.484 324.41C158.484 322.88 157.602 321.872 156.18 321.872C154.758 321.872 153.876 322.88 153.876 324.41C153.876 325.94 154.758 326.948 156.18 326.948C157.602 326.948 158.484 325.94 158.484 324.41ZM171.976 322.988V329H169.42V323.654C169.42 322.448 168.934 321.89 167.854 321.89C166.648 321.89 165.946 322.592 165.946 323.816V329H163.39V319.82H165.892V321.152C166.396 320.162 167.476 319.568 168.826 319.568C170.788 319.568 171.976 320.81 171.976 322.988ZM181.001 319.82H183.503V327.938C183.503 331.034 181.685 332.852 178.445 332.852C176.663 332.852 175.097 332.33 174.107 331.412L175.259 329.558C176.141 330.224 177.221 330.602 178.283 330.602C180.011 330.602 181.019 329.612 181.019 327.938V327.236C180.497 328.262 179.363 328.874 177.977 328.874C175.601 328.874 173.837 326.966 173.837 324.266C173.837 321.548 175.619 319.568 177.995 319.568C179.309 319.568 180.479 320.162 181.001 321.17V319.82ZM181.055 324.23C181.055 322.808 180.137 321.836 178.751 321.836C177.365 321.836 176.447 322.808 176.447 324.23C176.447 325.652 177.365 326.624 178.751 326.624C180.137 326.624 181.055 325.652 181.055 324.23ZM194.583 325.166H187.995C188.229 326.444 189.093 327.074 190.461 327.074C191.433 327.074 192.225 326.75 192.837 326.084L194.295 327.596C193.413 328.658 192.045 329.252 190.371 329.252C187.401 329.252 185.421 327.362 185.421 324.446C185.421 321.602 187.311 319.568 190.119 319.568C192.837 319.568 194.637 321.44 194.637 324.284C194.637 324.554 194.619 324.86 194.583 325.166ZM187.995 323.51H192.099C192.009 322.358 191.307 321.728 190.137 321.728C188.967 321.728 188.211 322.358 187.995 323.51Z" fill="white"/>
<defs>
<linearGradient id="paint0_linear_46_14266" x1="181" y1="169" x2="410" y2="169" gradientUnits="userSpaceOnUse">
<stop stop-color="#4C1EF5"/>
<stop offset="1" stop-color="#B81EF5"/>
</linearGradient>
<linearGradient id="paint1_linear_46_14266" x1="117" y1="120" x2="346" y2="120" gradientUnits="userSpaceOnUse">
<stop stop-color="#4C1EF5"/>
<stop offset="1" stop-color="#B81EF5"/>
</linearGradient>
<linearGradient id="paint2_linear_46_14266" x1="36" y1="54" x2="265" y2="54" gradientUnits="userSpaceOnUse">
<stop stop-color="#4C1EF5"/>
<stop offset="1" stop-color="#B81EF5"/>
</linearGradient>
</defs>
</svg>
