<svg width="32" height="32" viewBox="0 0 32 32" fill="none" xmlns="http://www.w3.org/2000/svg">
<path d="M6.25 22.75C11.7172 22.75 17.0136 23.4812 22.0468 24.8512C22.7738 25.0491 23.5 24.5086 23.5 23.7551V22.75M7.75 8.5V9.25C7.75 9.66421 7.41421 10 7 10H6.25M6.25 10V9.625C6.25 9.00368 6.75368 8.5 7.375 8.5H24.25M6.25 10V19M24.25 8.5V9.25C24.25 9.66421 24.5858 10 25 10H25.75M24.25 8.5H24.625C25.2463 8.5 25.75 9.00368 25.75 9.625V19.375C25.75 19.9963 25.2463 20.5 24.625 20.5H24.25M25.75 19H25C24.5858 19 24.25 19.3358 24.25 19.75V20.5M24.25 20.5H7.75M7.75 20.5H7.375C6.75368 20.5 6.25 19.9963 6.25 19.375V19M7.75 20.5V19.75C7.75 19.3358 7.41421 19 7 19H6.25M19 14.5C19 16.1569 17.6569 17.5 16 17.5C14.3431 17.5 13 16.1569 13 14.5C13 12.8431 14.3431 11.5 16 11.5C17.6569 11.5 19 12.8431 19 14.5ZM22 14.5H22.0075V14.5075H22V14.5ZM10 14.5H10.0075V14.5075H10V14.5Z" stroke="#9E9BAB" stroke-width="1.5" stroke-linecap="round" stroke-linejoin="round"/>
</svg>
