<svg width="668" height="888" viewBox="0 0 668 888" fill="none" xmlns="http://www.w3.org/2000/svg">
<rect width="668" height="888" rx="16" fill="url(#paint0_linear_65_20910)"/>
<path d="M201.504 481.693L264.7 465.739L284.997 432.961C302.409 394.2 297.23 355.509 297.23 355.509C271.744 349.915 205.856 353.023 200.261 357.995C194.666 362.968 126.913 409.588 115.724 417.668C104.536 425.749 86.5085 446.884 86.5085 446.884L64.7461 467.501C76.7513 472.079 97.3248 490.197 123.729 516.603C123.729 516.603 184.721 503.449 201.504 481.693Z" fill="#8B6A40"/>
<path d="M199.638 432.586L200.15 446.042L200.102 446.022C194.021 460.614 163.93 483.454 163.626 483.684L164.376 484.674C165.569 483.776 192.405 463.396 200.248 448.584L201.504 481.693C184.721 503.449 123.729 516.602 123.729 516.602C97.3248 490.197 76.7513 472.078 64.7461 467.501L62.8877 469.261L110.752 555.662L136.858 531.42C182.234 545.096 206.476 500.962 206.476 500.962C249.834 486.934 278.693 418.532 290.806 391.561L199.638 432.586Z" fill="#745238"/>
<path d="M212.07 385.968C212.07 385.968 218.534 470.235 216.669 503.8C216.669 503.8 334.062 462.047 497.384 504.071C497.384 504.071 527.841 438.936 522.869 329.403C522.869 329.403 385.497 302.673 212.07 385.968Z" fill="#AE6523"/>
<path d="M490.108 347.038C490.108 343.816 491.136 340.841 492.862 338.412C459.626 336.26 352.469 334.505 234.604 387.257C236.986 389.38 238.498 392.482 238.498 395.949C238.498 402.348 233.378 407.534 227.062 407.534C226.013 407.534 225.002 407.38 224.037 407.112L225.054 477.777C226.892 476.501 229.113 475.753 231.509 475.753C235.6 475.753 239.18 477.936 241.201 481.206C276.526 474.285 366.384 461.504 472.022 483.266C470.218 480.805 469.138 477.766 469.138 474.465C469.138 466.29 475.682 459.664 483.753 459.664C489.02 459.664 493.62 462.493 496.192 466.722C499.918 451.92 512.657 397.913 510.181 360.762C508.493 361.452 506.653 361.841 504.721 361.841C496.649 361.841 490.108 355.214 490.108 347.038Z" fill="#DD8D3A"/>
<path d="M119.143 429.789C119.143 429.789 141.521 422.33 144.007 421.086C146.493 419.844 191.248 383.792 231.031 391.872C231.031 391.872 264.596 375.71 277.649 383.792C290.704 391.872 274.543 419.844 231.652 421.086C231.652 421.086 208.031 444.708 184.411 450.302L119.143 429.789Z" fill="#745238"/>
<path d="M120.075 431.344C120.075 431.344 142.453 423.885 144.938 422.641C147.425 421.399 192.181 385.345 231.962 393.427C231.962 393.427 265.529 377.265 278.581 385.345C291.636 393.427 275.474 421.399 232.584 422.641C232.584 422.641 208.964 446.263 185.342 451.857L120.075 431.344Z" fill="#8B6A40"/>
<path d="M353.441 387.861C353.877 390.92 351.751 393.752 348.691 394.188L300.28 401.076C297.221 401.51 294.388 399.385 293.953 396.325C293.519 393.266 295.644 390.434 298.704 389.998L347.115 383.11C350.175 382.674 353.007 384.801 353.441 387.861Z" fill="#AE6523"/>
<path d="M349.299 412.958C349.733 416.018 347.607 418.85 344.547 419.285L296.137 426.173C293.077 426.609 290.245 424.482 289.809 421.424C289.375 418.364 291.5 415.532 294.559 415.097L342.972 408.208C346.031 407.773 348.863 409.9 349.299 412.958Z" fill="#AE6523"/>
<path d="M335.883 438.433C336.317 441.492 334.683 444.254 332.225 444.604L293.383 450.13C290.929 450.48 288.587 448.284 288.152 445.224C287.716 442.165 289.353 439.402 291.807 439.054L330.649 433.526C333.105 433.177 335.448 435.373 335.883 438.433Z" fill="#AE6523"/>
<path d="M484.072 405.568C484.072 434.862 460.325 458.61 431.029 458.61C401.734 458.61 377.988 434.862 377.988 405.568C377.988 376.274 401.734 352.526 431.029 352.526C460.325 352.526 484.072 376.274 484.072 405.568Z" fill="#AE6523"/>
<path d="M255.448 410.832C243.854 405.168 244.704 393.844 244.704 393.844C244.708 393.846 244.714 393.848 244.722 393.848C245.056 393.848 248.141 391.842 252.293 389.836C256.445 387.83 261.661 385.825 266.254 385.825C270.124 385.825 273.55 387.249 275.524 391.296C282.622 405.858 255.448 410.832 255.448 410.832Z" fill="#A08560"/>
<path d="M121.729 577.631C118.136 602.095 25.0957 660.985 0.729004 676.029V487.773L46.316 458.284C46.316 458.284 54.5968 445.852 68.6936 465.743C82.7796 485.635 125.882 549.447 121.729 577.631Z" fill="#DD8D3A"/>
<path d="M93.6201 558.696L0.729004 622.832V608.734L87.0192 549.148C89.6534 547.321 93.2712 547.993 95.0868 550.628C96.9144 553.264 96.255 556.869 93.6201 558.696Z" fill="#885629"/>
<path d="M91.8968 586.117C91.8968 591.956 87.1644 596.688 81.3258 596.688C75.4873 596.688 70.7534 591.956 70.7534 586.117C70.7534 580.278 75.4873 575.545 81.3258 575.545C87.1644 575.545 91.8968 580.278 91.8968 586.117Z" fill="#FBC617"/>
<path d="M78.8221 587.786C75.9033 587.786 73.5366 585.42 73.5366 582.5C73.5366 579.581 75.9033 577.215 78.8221 577.215C81.7414 577.215 84.1085 579.581 84.1085 582.5C84.1085 585.42 81.7414 587.786 78.8221 587.786Z" fill="#F9D83B"/>
<path d="M67.1836 606.841C67.1836 612.68 62.4519 617.412 56.6128 617.412C50.7752 617.412 46.0415 612.68 46.0415 606.841C46.0415 601.004 50.7752 596.268 56.6128 596.268C62.4519 596.268 67.1836 601.004 67.1836 606.841Z" fill="#FBC617"/>
<path d="M54.1091 608.51C51.1904 608.51 48.8237 606.142 48.8237 603.224C48.8237 600.305 51.1904 597.937 54.1091 597.937C57.0279 597.937 59.3956 600.305 59.3956 603.224C59.3956 606.142 57.0279 608.51 54.1091 608.51Z" fill="#F9D83B"/>
<path d="M432.078 400.777H442.468L448.196 392.293H431.874C431.028 388.294 429.084 385.246 426.777 382.928H442.468L448.196 374.445H404.128L398.398 382.928H412.054C415.218 384.838 419.153 387.946 420.969 392.293H404.128L398.398 400.777H421.666C420.117 409.35 413.057 412.565 409.636 412.565C405.78 412.565 399.72 412.565 399.72 412.565L433.048 445.893H445.442L419.138 419.589C419.138 419.589 430.273 414.952 432.078 400.777Z" fill="#DD8D3A"/>
<path d="M603.007 618.461C588.796 614.062 572.969 609.617 566.181 609.308C552.521 608.688 527.063 672.025 520.232 703.072C513.401 734.12 528.304 734.74 528.304 734.74L541.195 740.745C543.192 725.377 551.644 701.168 564.753 675.38C577.601 650.106 591.863 629.324 603.007 618.461Z" fill="white"/>
<path d="M377.413 636.009C379.276 636.009 388.591 638.493 388.591 638.493C388.591 638.493 409.703 706.798 506.571 688.169L522.715 683.822L551.521 694.025C574.792 657.31 570.528 622.349 570.528 622.349C558.109 622.349 556.867 607.446 540.723 586.333C524.579 565.221 468.693 544.109 468.693 544.109L423.984 559.01L332.084 649.67C332.084 649.67 333.467 650.616 335.797 652.168L348.229 639.736C348.229 639.736 375.551 636.009 377.413 636.009Z" fill="#FABE84"/>
<path d="M522.715 683.822L506.571 688.169C445.488 699.917 414.535 677.097 399.996 658.634C413.285 658.169 442.944 658.058 468.072 664.573L483.595 604.962L397.301 655.013C390.856 645.816 388.591 638.493 388.591 638.493C388.591 638.493 379.276 636.009 377.415 636.009C375.551 636.009 348.229 639.736 348.229 639.736L335.797 652.168C346.635 659.377 378.409 679.916 391.695 681.96C407.84 684.444 474.903 715.49 474.903 715.49L509.676 704.313L533.271 716.733C540.72 709.284 546.709 701.617 551.521 694.025L522.715 683.822Z" fill="#DC9D74"/>
<path d="M173.896 579.657L254.465 701.829C254.465 701.829 323.391 640.357 465.588 658.362L498.499 534.174C498.499 534.174 352.285 473.713 173.896 579.657Z" fill="#4F9634"/>
<path d="M481.898 540.965C481.898 540.965 476.344 539.079 466.13 536.867C467.346 547.739 473.085 555.532 477.416 559.981L481.898 540.965Z" fill="#77B459"/>
<path d="M259.624 681.022C259.624 681.022 264.285 677.417 273.636 672.326C265.077 667.513 256.109 666.121 249.741 665.85L259.624 681.022Z" fill="#77B459"/>
<path d="M458.392 640.704L461.565 627.247C451.358 629.672 443.569 635.22 438.74 639.583C445.121 639.811 451.666 640.176 458.392 640.704Z" fill="#77B459"/>
<path d="M214.185 573.233C208.025 576.192 201.816 579.319 195.552 582.667L205.728 598.289C213.057 589.149 214.248 579.121 214.185 573.233Z" fill="#77B459"/>
<path d="M457.269 535.108C416.296 527.688 328.105 521.106 222.669 569.252C223.269 575.6 223.304 591.912 210.617 605.79L244.225 657.384C252 656.996 268.092 657.694 282.456 667.816C308.381 655.341 356.46 638.626 427.05 639.312C430.676 634.934 443.426 621.304 463.695 618.2L475.165 569.54C469.987 565.305 458.224 553.692 457.269 535.108Z" fill="#77B459"/>
<path d="M400.447 589.078C400.213 616.578 377.598 638.682 349.933 638.452C322.265 638.224 300.026 615.747 300.257 588.248C300.486 560.749 323.102 538.642 350.77 538.873C378.434 539.102 400.677 561.581 400.447 589.078Z" fill="#4F9634"/>
<path d="M277.564 582.672C278.43 585.379 276.925 588.269 274.202 589.131L253.686 595.619C250.96 596.479 248.052 594.983 247.185 592.277C246.318 589.568 247.822 586.676 250.548 585.816L271.065 579.328C273.786 578.469 276.698 579.965 277.564 582.672Z" fill="#4F9634"/>
<path d="M284.974 603.237C285.841 605.943 283.618 609.063 280.013 610.201L252.838 618.793C249.232 619.933 245.608 618.664 244.74 615.957C243.874 613.251 246.094 610.132 249.702 608.992L276.874 600.4C280.482 599.259 284.109 600.528 284.974 603.237Z" fill="#4F9634"/>
<path d="M500.981 649.253C484.216 635.593 486.08 607.447 486.08 607.447C471.177 607.447 456.273 590.681 456.273 590.681L429.573 592.543C368.099 613.656 370.583 576.244 378.035 573.294C386.139 570.085 466.829 546.593 466.829 546.593L512.365 574.743L500.981 649.253Z" fill="#DC9D74"/>
<path d="M500.981 645.945C484.216 632.284 487.943 604.963 487.943 604.963C473.039 604.963 458.137 588.196 458.137 588.196L431.436 590.06C369.963 611.172 370.893 575.777 379.276 572.828C387.497 569.936 468.693 544.109 468.693 544.109C468.693 544.109 496.015 550.94 528.304 573.915L500.981 645.945Z" fill="#FABE84"/>
<path d="M365.139 594.432C364.42 592.135 363.175 590.673 361.401 590.053C359.629 589.439 357.02 589.325 353.579 589.717L358.339 604.911C361.203 603.704 363.239 602.255 364.452 600.563C365.661 598.873 365.893 596.829 365.139 594.432ZM347.073 584.204L342.323 569.049C339.751 570.063 337.757 571.461 336.349 573.253C334.94 575.045 334.581 577.043 335.269 579.244C335.968 581.472 337.156 582.943 338.839 583.653C340.523 584.367 343.268 584.552 347.073 584.204ZM371.819 591.316C373.008 595.111 372.508 598.72 370.311 602.148C368.123 605.581 364.685 608.275 360.007 610.232L364.168 623.517L359.812 624.865L355.709 611.765C352.451 612.747 349.3 613.379 346.259 613.661C343.216 613.947 340.5 613.936 338.108 613.632L335.831 606.364L336.42 606.183C336.996 606.379 337.988 606.616 339.395 606.891C340.807 607.167 342.141 607.336 343.405 607.403C344.832 607.472 346.461 607.443 348.299 607.313C350.139 607.192 352.037 606.861 354.005 606.332L349.027 590.445C347.98 590.552 347.011 590.645 346.117 590.72C345.223 590.796 344.388 590.848 343.612 590.871C339.287 591.109 335.932 590.492 333.552 589.016C331.172 587.536 329.517 585.319 328.591 582.36C327.457 578.739 327.932 575.233 330.016 571.855C332.101 568.469 335.652 565.776 340.667 563.767L337.54 553.783L341.896 552.435L344.999 562.341C347.501 561.623 350.143 561.128 352.92 560.857C355.697 560.587 358.084 560.535 360.079 560.695L362.331 567.887L361.813 568.048C359.617 567.493 357.376 567.091 355.099 566.845C352.82 566.597 350.011 566.869 346.667 567.663L351.624 583.479C352.403 583.372 353.252 583.293 354.18 583.233C355.105 583.175 355.907 583.108 356.585 583.031C360.5 582.677 363.757 583.145 366.361 584.433C368.965 585.72 370.785 588.017 371.819 591.316Z" fill="#77B459"/>
<path d="M618.681 610.775C615.218 609.016 609.669 611.965 603.006 618.461C606.541 619.554 609.972 620.643 613.144 621.667L618.681 610.775Z" fill="#72371B"/>
<path d="M541.194 740.745C540.066 749.442 540.997 755.318 544.341 757.02L550.428 745.045L541.194 740.745Z" fill="#72371B"/>
<path d="M613.144 621.667C609.972 620.643 606.541 619.555 603.006 618.461C591.862 629.324 577.601 650.107 564.753 675.38C551.644 701.168 543.192 725.377 541.194 740.745L550.428 745.045L613.144 621.667Z" fill="white"/>
<path d="M667.396 637.264V842.252L544.337 757.021C547.776 758.77 553.29 755.864 559.884 749.456C571.049 738.628 585.368 717.788 598.272 692.417C612.093 665.205 620.75 639.758 622.09 624.596C622.749 617.257 621.706 612.313 618.676 610.773L667.396 637.264Z" fill="#8F4E2A"/>
<path d="M622.096 624.6C622.75 617.255 621.7 612.311 618.681 610.775L613.144 621.667C616.482 622.745 619.533 623.748 622.096 624.6Z" fill="#5F2D18"/>
<path d="M559.891 749.453L550.428 745.045L544.341 757.02C547.783 758.768 553.285 755.861 559.891 749.453Z" fill="#5F2D18"/>
<path d="M550.428 745.045L559.89 749.453C571.053 738.624 585.372 717.784 598.268 692.416C612.097 665.209 620.746 639.761 622.096 624.6C619.533 623.748 616.482 622.745 613.144 621.666L550.428 745.045Z" fill="#DFDFDD"/>
<path d="M619.376 760.612C619.376 769.301 612.333 776.344 603.645 776.344C594.958 776.344 587.913 769.301 587.913 760.612C587.913 751.925 594.958 744.881 603.645 744.881C612.333 744.881 619.376 751.925 619.376 760.612Z" fill="#FBC617"/>
<path d="M602.23 763.889C597.698 763.889 594.025 760.216 594.025 755.685C594.025 751.155 597.698 747.481 602.23 747.481C606.76 747.481 610.433 751.155 610.433 755.685C610.433 760.216 606.76 763.889 602.23 763.889Z" fill="#F9D83B"/>
<path d="M653.558 781.056C653.558 789.745 646.516 796.788 637.828 796.788C629.14 796.788 622.096 789.745 622.096 781.056C622.096 772.369 629.14 765.325 637.828 765.325C646.516 765.325 653.558 772.369 653.558 781.056Z" fill="#FBC617"/>
<path d="M636.413 784.333C631.881 784.333 628.208 780.66 628.208 776.129C628.208 771.598 631.881 767.925 636.413 767.925C640.943 767.925 644.616 771.598 644.616 776.129C644.616 780.66 640.943 784.333 636.413 784.333Z" fill="#F9D83B"/>
<path d="M385.693 591.094C373.481 583.024 379.897 574.536 379.897 574.536C379.897 574.536 388.512 570.274 403.493 567.705C404.037 567.612 404.555 567.568 405.048 567.568C414.42 567.568 414.98 583.54 414.98 583.54C396.041 590.99 385.693 591.094 385.693 591.094Z" fill="#FDDDBC"/>
<path d="M208.544 163.726C208.544 171.599 203.958 175.743 195.148 175.743H187.625V187.915H180V151.658H195.148C203.958 151.658 208.544 155.853 208.544 163.726ZM200.609 163.726C200.609 160.204 198.909 158.702 194.736 158.702H187.625V168.854H194.736C198.909 168.854 200.609 167.3 200.609 163.726Z" fill="#F3F0FE"/>
<path d="M232.005 161.499H239.218V187.915H232.005V183.979C230.511 186.879 227.162 188.641 223.4 188.641C216.548 188.641 211.55 182.891 211.55 174.707C211.55 166.523 216.548 160.774 223.4 160.774C227.162 160.774 230.511 162.535 232.005 165.436V161.499ZM232.159 174.707C232.159 170.304 229.635 167.404 225.564 167.404C221.494 167.404 218.969 170.304 218.969 174.707C218.969 179.11 221.494 182.011 225.564 182.011C229.635 182.011 232.159 179.11 232.159 174.707Z" fill="#F3F0FE"/>
<path d="M262.741 161.499H270.006V185.222C270.006 194.079 265.008 199 255.992 199C251.458 199 247.387 197.705 244.76 195.478L247.8 190.039C250.015 191.645 252.849 192.525 255.528 192.525C260.114 192.525 262.844 189.936 262.844 185.222V183.098C261.402 185.844 258.362 187.553 254.601 187.553C249.088 187.553 245.687 183.927 245.687 177.711V161.499H253.004V175.795C253.004 179.265 254.343 180.871 257.383 180.871C260.681 180.871 262.741 178.851 262.741 175.329V161.499Z" fill="#F3F0FE"/>
<path d="M275.862 169.838C275.708 159.168 283.539 150.777 294.462 150.932C301.83 150.932 307.704 154.403 310.641 160.826L304.097 164.244C302.191 160.152 298.79 158.132 294.617 158.132C288.228 158.132 283.797 163.053 283.797 169.786C283.797 176.52 288.228 181.441 294.617 181.441C298.79 181.441 302.242 179.421 304.149 175.329L310.641 178.747C307.704 185.17 301.83 188.641 294.462 188.641C283.591 188.796 275.708 180.56 275.862 169.838Z" fill="#F3F0FE"/>
<path d="M339.712 170.615V187.915H332.396V172.532C332.396 169.061 331.004 167.456 327.913 167.456C324.461 167.456 322.451 169.476 322.451 172.998V187.915H315.135V150H322.451V165.073C323.946 162.379 326.934 160.774 330.695 160.774C336.311 160.774 339.712 164.348 339.712 170.615Z" fill="#F3F0FE"/>
<path d="M363.071 161.499H370.336V185.222C370.336 194.079 365.338 199 356.322 199C351.788 199 347.717 197.705 345.09 195.478L348.13 190.039C350.345 191.645 353.179 192.525 355.858 192.525C360.444 192.525 363.174 189.936 363.174 185.222V183.098C361.732 185.844 358.692 187.553 354.931 187.553C349.418 187.553 346.017 183.927 346.017 177.711V161.499H353.333V175.795C353.333 179.265 354.673 180.871 357.713 180.871C361.01 180.871 363.071 178.851 363.071 175.329V161.499Z" fill="#F3F0FE"/>
<path d="M394.844 187.915L387.373 177.245H384.642V187.915H377.326V150H384.642V170.874H387.527L394.637 161.499H403.242L393.504 174.034L403.448 187.915H394.844Z" fill="#F3F0FE"/>
<path d="M415.397 181.648H427.969V187.915H406.02V182.943L418.385 167.766H406.432V161.499H427.814V166.471L415.397 181.648Z" fill="#F3F0FE"/>
<path d="M457.555 176.883H438.698C439.367 180.56 441.841 182.373 445.756 182.373C448.539 182.373 450.806 181.441 452.557 179.524L456.731 183.875C454.206 186.931 450.29 188.641 445.499 188.641C436.997 188.641 431.33 183.202 431.33 174.811C431.33 166.627 436.74 160.774 444.777 160.774C452.557 160.774 457.71 166.161 457.71 174.345C457.71 175.122 457.658 176.002 457.555 176.883ZM438.698 172.117H450.445C450.187 168.802 448.178 166.989 444.829 166.989C441.48 166.989 439.316 168.802 438.698 172.117Z" fill="#F3F0FE"/>
<path d="M487.845 176.883H468.988C469.658 180.56 472.131 182.373 476.047 182.373C478.829 182.373 481.096 181.441 482.848 179.524L487.021 183.875C484.496 186.931 480.581 188.641 475.789 188.641C467.288 188.641 461.62 183.202 461.62 174.811C461.62 166.627 467.03 160.774 475.068 160.774C482.848 160.774 488 166.161 488 174.345C488 175.122 487.948 176.002 487.845 176.883ZM468.988 172.117H480.735C480.478 168.802 478.468 166.989 475.119 166.989C471.77 166.989 469.606 168.802 468.988 172.117Z" fill="#F3F0FE"/>
<path d="M122.879 238.7C122.825 235.064 125.615 232.094 129.233 232.148C131.609 232.148 133.661 233.282 134.723 235.388L133.409 236.144C132.527 234.47 131.177 233.624 129.341 233.624C126.479 233.624 124.535 235.748 124.535 238.7C124.535 241.652 126.479 243.776 129.341 243.776C131.141 243.776 132.563 242.966 133.445 241.256L134.723 242.012C133.661 244.118 131.609 245.252 129.233 245.252C125.579 245.306 122.825 242.336 122.879 238.7ZM144.942 239.168V245H143.43V239.528C143.43 237.8 142.782 237.044 141.342 237.044C139.704 237.044 138.534 238.052 138.534 239.582V245H137.022V231.824H138.534V237.44C139.038 236.288 140.208 235.64 141.702 235.64C143.772 235.64 144.942 236.918 144.942 239.168ZM147.466 240.446C147.43 237.872 149.392 235.586 152.146 235.64C154.9 235.586 156.862 237.872 156.826 240.446C156.862 243.02 154.9 245.306 152.146 245.252C149.392 245.306 147.43 243.02 147.466 240.446ZM155.242 240.446C155.242 239.456 154.954 238.628 154.378 237.998C153.82 237.368 153.064 237.044 152.146 237.044C151.228 237.044 150.472 237.368 149.896 237.998C149.338 238.628 149.05 239.456 149.05 240.446C149.05 241.436 149.338 242.264 149.896 242.894C150.472 243.524 151.228 243.848 152.146 243.848C153.064 243.848 153.82 243.524 154.378 242.894C154.954 242.264 155.242 241.436 155.242 240.446ZM158.769 240.446C158.733 237.872 160.695 235.586 163.449 235.64C166.203 235.586 168.165 237.872 168.129 240.446C168.165 243.02 166.203 245.306 163.449 245.252C160.695 245.306 158.733 243.02 158.769 240.446ZM166.545 240.446C166.545 239.456 166.257 238.628 165.681 237.998C165.123 237.368 164.367 237.044 163.449 237.044C162.531 237.044 161.775 237.368 161.199 237.998C160.641 238.628 160.353 239.456 160.353 240.446C160.353 241.436 160.641 242.264 161.199 242.894C161.775 243.524 162.531 243.848 163.449 243.848C164.367 243.848 165.123 243.524 165.681 242.894C166.257 242.264 166.545 241.436 166.545 240.446ZM169.856 243.272L170.954 242.462C171.602 243.398 172.664 243.884 173.906 243.884C175.202 243.884 175.994 243.344 175.994 242.498C175.994 241.85 175.544 241.472 174.392 241.202L172.952 240.878C171.08 240.446 170.18 239.618 170.18 238.34C170.18 236.738 171.548 235.64 173.762 235.64C175.346 235.64 176.624 236.198 177.362 237.188L176.318 238.088C175.724 237.386 174.806 237.008 173.672 237.008C172.376 237.008 171.692 237.494 171.692 238.304C171.692 238.898 172.106 239.24 173.33 239.528L174.932 239.888C176.732 240.302 177.506 241.112 177.506 242.39C177.506 244.118 176.156 245.252 173.924 245.252C172.07 245.252 170.576 244.496 169.856 243.272ZM188.138 240.914H180.848C181.01 242.732 182.234 243.848 184.016 243.848C185.186 243.848 186.158 243.38 186.914 242.426L187.94 243.29C187.058 244.532 185.654 245.252 183.98 245.252C181.226 245.252 179.3 243.29 179.3 240.464C179.3 237.674 181.172 235.64 183.854 235.64C186.392 235.64 188.192 237.458 188.192 240.104C188.192 240.374 188.174 240.644 188.138 240.914ZM180.884 239.69H186.644C186.5 238.016 185.438 237.044 183.854 237.044C182.252 237.044 181.154 238.052 180.884 239.69ZM201.1 235.892H202.612V244.118C202.612 247.196 200.974 248.852 198.166 248.852C196.636 248.852 195.232 248.348 194.386 247.484L195.268 246.404C196.006 247.07 197.05 247.448 198.13 247.448C200.02 247.448 201.1 246.332 201.1 244.118V243.2C200.578 244.352 199.39 245 197.896 245C195.862 245 194.656 243.758 194.656 241.472V235.892H196.168V241.112C196.168 242.84 196.834 243.596 198.256 243.596C199.912 243.596 201.1 242.57 201.1 241.058V235.892ZM205.21 240.446C205.174 237.872 207.136 235.586 209.89 235.64C212.644 235.586 214.606 237.872 214.57 240.446C214.606 243.02 212.644 245.306 209.89 245.252C207.136 245.306 205.174 243.02 205.21 240.446ZM212.986 240.446C212.986 239.456 212.698 238.628 212.122 237.998C211.564 237.368 210.808 237.044 209.89 237.044C208.972 237.044 208.216 237.368 207.64 237.998C207.082 238.628 206.794 239.456 206.794 240.446C206.794 241.436 207.082 242.264 207.64 242.894C208.216 243.524 208.972 243.848 209.89 243.848C210.808 243.848 211.564 243.524 212.122 242.894C212.698 242.264 212.986 241.436 212.986 240.446ZM216.981 241.598V235.892H218.493V241.508C218.493 243.02 219.375 243.848 220.905 243.848C222.435 243.848 223.317 243.02 223.317 241.508V235.892H224.829V241.598C224.829 243.758 223.263 245.252 220.905 245.252C218.547 245.252 216.981 243.758 216.981 241.598ZM232.996 235.874V237.206C232.726 237.17 232.474 237.152 232.204 237.152C230.422 237.152 229.396 238.196 229.396 240.338V245H227.884V235.892H229.396V237.602C229.81 236.432 230.818 235.748 232.168 235.748C232.474 235.748 232.762 235.784 232.996 235.874ZM238.661 240.446C238.661 237.674 240.569 235.64 243.341 235.64C245.015 235.64 246.383 236.342 247.157 237.62L245.969 238.448C245.411 237.53 244.493 237.044 243.359 237.044C242.441 237.044 241.685 237.35 241.109 237.98C240.533 238.61 240.245 239.42 240.245 240.446C240.245 241.472 240.533 242.282 241.109 242.912C241.685 243.542 242.441 243.848 243.359 243.848C244.493 243.848 245.411 243.362 245.969 242.444L247.157 243.272C246.383 244.55 245.015 245.252 243.341 245.252C240.569 245.252 238.661 243.218 238.661 240.446ZM249.237 241.598V235.892H250.749V241.508C250.749 243.02 251.631 243.848 253.161 243.848C254.691 243.848 255.573 243.02 255.573 241.508V235.892H257.085V241.598C257.085 243.758 255.519 245.252 253.161 245.252C250.803 245.252 249.237 243.758 249.237 241.598ZM265.252 235.874V237.206C264.982 237.17 264.73 237.152 264.46 237.152C262.678 237.152 261.652 238.196 261.652 240.338V245H260.14V235.892H261.652V237.602C262.066 236.432 263.074 235.748 264.424 235.748C264.73 235.748 265.018 235.784 265.252 235.874ZM272.529 235.874V237.206C272.259 237.17 272.007 237.152 271.737 237.152C269.955 237.152 268.929 238.196 268.929 240.338V245H267.417V235.892H268.929V237.602C269.343 236.432 270.351 235.748 271.701 235.748C272.007 235.748 272.295 235.784 272.529 235.874ZM282.427 240.914H275.137C275.299 242.732 276.523 243.848 278.305 243.848C279.475 243.848 280.447 243.38 281.203 242.426L282.229 243.29C281.347 244.532 279.943 245.252 278.269 245.252C275.515 245.252 273.589 243.29 273.589 240.464C273.589 237.674 275.461 235.64 278.143 235.64C280.681 235.64 282.481 237.458 282.481 240.104C282.481 240.374 282.463 240.644 282.427 240.914ZM275.173 239.69H280.933C280.789 238.016 279.727 237.044 278.143 237.044C276.541 237.044 275.443 238.052 275.173 239.69ZM292.95 239.168V245H291.438V239.528C291.438 237.8 290.79 237.044 289.35 237.044C287.712 237.044 286.542 238.052 286.542 239.582V245H285.03V235.892H286.542V237.44C287.046 236.288 288.216 235.64 289.71 235.64C291.78 235.64 292.95 236.918 292.95 239.168ZM295.474 240.446C295.474 237.674 297.382 235.64 300.154 235.64C301.828 235.64 303.196 236.342 303.97 237.62L302.782 238.448C302.224 237.53 301.306 237.044 300.172 237.044C299.254 237.044 298.498 237.35 297.922 237.98C297.346 238.61 297.058 239.42 297.058 240.446C297.058 241.472 297.346 242.282 297.922 242.912C298.498 243.542 299.254 243.848 300.172 243.848C301.306 243.848 302.224 243.362 302.782 242.444L303.97 243.272C303.196 244.55 301.828 245.252 300.154 245.252C297.382 245.252 295.474 243.218 295.474 240.446ZM305.959 232.94C305.959 232.346 306.409 231.896 307.003 231.896C307.597 231.896 308.047 232.346 308.047 232.94C308.047 233.534 307.597 233.984 307.003 233.984C306.409 233.984 305.959 233.534 305.959 232.94ZM306.247 245V235.892H307.759V245H306.247ZM319.201 240.914H311.911C312.073 242.732 313.297 243.848 315.079 243.848C316.249 243.848 317.221 243.38 317.977 242.426L319.003 243.29C318.121 244.532 316.717 245.252 315.043 245.252C312.289 245.252 310.363 243.29 310.363 240.464C310.363 237.674 312.235 235.64 314.917 235.64C317.455 235.64 319.255 237.458 319.255 240.104C319.255 240.374 319.237 240.644 319.201 240.914ZM311.947 239.69H317.707C317.563 238.016 316.501 237.044 314.917 237.044C313.315 237.044 312.217 238.052 311.947 239.69ZM320.94 243.272L322.038 242.462C322.686 243.398 323.748 243.884 324.99 243.884C326.286 243.884 327.078 243.344 327.078 242.498C327.078 241.85 326.628 241.472 325.476 241.202L324.036 240.878C322.164 240.446 321.264 239.618 321.264 238.34C321.264 236.738 322.632 235.64 324.846 235.64C326.43 235.64 327.708 236.198 328.446 237.188L327.402 238.088C326.808 237.386 325.89 237.008 324.756 237.008C323.46 237.008 322.776 237.494 322.776 238.304C322.776 238.898 323.19 239.24 324.414 239.528L326.016 239.888C327.816 240.302 328.59 241.112 328.59 242.39C328.59 244.118 327.24 245.252 325.008 245.252C323.154 245.252 321.66 244.496 320.94 243.272ZM342.237 235.892H343.749V245H342.237V243.326C341.715 244.496 340.401 245.252 338.871 245.252C336.369 245.252 334.533 243.254 334.533 240.446C334.533 237.638 336.369 235.64 338.871 235.64C340.401 235.64 341.715 236.396 342.237 237.566V235.892ZM342.309 240.446C342.309 239.456 342.021 238.628 341.445 237.998C340.887 237.368 340.131 237.044 339.213 237.044C338.295 237.044 337.539 237.368 336.963 237.998C336.405 238.628 336.117 239.456 336.117 240.446C336.117 241.436 336.405 242.264 336.963 242.894C337.539 243.524 338.295 243.848 339.213 243.848C340.131 243.848 340.887 243.524 341.445 242.894C342.021 242.264 342.309 241.436 342.309 240.446ZM354.913 239.168V245H353.401V239.528C353.401 237.8 352.753 237.044 351.313 237.044C349.675 237.044 348.505 238.052 348.505 239.582V245H346.993V235.892H348.505V237.44C349.009 236.288 350.179 235.64 351.673 235.64C353.743 235.64 354.913 236.918 354.913 239.168ZM365.141 231.824H366.653V245H365.141V243.326C364.583 244.496 363.287 245.252 361.757 245.252C359.273 245.252 357.437 243.254 357.437 240.446C357.437 237.638 359.273 235.64 361.757 235.64C363.287 235.64 364.583 236.396 365.141 237.566V231.824ZM365.213 240.446C365.213 239.456 364.925 238.628 364.349 237.998C363.791 237.368 363.035 237.044 362.117 237.044C361.199 237.044 360.443 237.368 359.867 237.998C359.309 238.628 359.021 239.456 359.021 240.446C359.021 241.436 359.309 242.264 359.867 242.894C360.443 243.524 361.199 243.848 362.117 243.848C363.035 243.848 363.791 243.524 364.349 242.894C364.925 242.264 365.213 241.436 365.213 240.446ZM373.182 243.272L374.28 242.462C374.928 243.398 375.99 243.884 377.232 243.884C378.528 243.884 379.32 243.344 379.32 242.498C379.32 241.85 378.87 241.472 377.718 241.202L376.278 240.878C374.406 240.446 373.506 239.618 373.506 238.34C373.506 236.738 374.874 235.64 377.088 235.64C378.672 235.64 379.95 236.198 380.688 237.188L379.644 238.088C379.05 237.386 378.132 237.008 376.998 237.008C375.702 237.008 375.018 237.494 375.018 238.304C375.018 238.898 375.432 239.24 376.656 239.528L378.258 239.888C380.058 240.302 380.832 241.112 380.832 242.39C380.832 244.118 379.482 245.252 377.25 245.252C375.396 245.252 373.902 244.496 373.182 243.272ZM383.905 242.66V237.188H382.087V235.892H383.905V233.192H385.417V235.892H388.279V237.188H385.417V242.552C385.417 243.434 385.867 243.812 386.893 243.812C387.307 243.812 387.793 243.758 388.315 243.65V244.91C387.793 245.072 387.253 245.144 386.677 245.144C384.877 245.144 383.905 244.298 383.905 242.66ZM397.502 235.892H399.014V245H397.502V243.326C396.98 244.496 395.666 245.252 394.136 245.252C391.634 245.252 389.798 243.254 389.798 240.446C389.798 237.638 391.634 235.64 394.136 235.64C395.666 235.64 396.98 236.396 397.502 237.566V235.892ZM397.574 240.446C397.574 239.456 397.286 238.628 396.71 237.998C396.152 237.368 395.396 237.044 394.478 237.044C393.56 237.044 392.804 237.368 392.228 237.998C391.67 238.628 391.382 239.456 391.382 240.446C391.382 241.436 391.67 242.264 392.228 242.894C392.804 243.524 393.56 243.848 394.478 243.848C395.396 243.848 396.152 243.524 396.71 242.894C397.286 242.264 397.574 241.436 397.574 240.446ZM407.371 235.874V237.206C407.101 237.17 406.849 237.152 406.579 237.152C404.797 237.152 403.771 238.196 403.771 240.338V245H402.259V235.892H403.771V237.602C404.185 236.432 405.193 235.748 406.543 235.748C406.849 235.748 407.137 235.784 407.371 235.874ZM410.413 242.66V237.188H408.595V235.892H410.413V233.192H411.925V235.892H414.787V237.188H411.925V242.552C411.925 243.434 412.375 243.812 413.401 243.812C413.815 243.812 414.301 243.758 414.823 243.65V244.91C414.301 245.072 413.761 245.144 413.185 245.144C411.385 245.144 410.413 244.298 410.413 242.66ZM429.468 240.914H422.178C422.34 242.732 423.564 243.848 425.346 243.848C426.516 243.848 427.488 243.38 428.244 242.426L429.27 243.29C428.388 244.532 426.984 245.252 425.31 245.252C422.556 245.252 420.63 243.29 420.63 240.464C420.63 237.674 422.502 235.64 425.184 235.64C427.722 235.64 429.522 237.458 429.522 240.104C429.522 240.374 429.504 240.644 429.468 240.914ZM422.214 239.69H427.974C427.83 238.016 426.768 237.044 425.184 237.044C423.582 237.044 422.484 238.052 422.214 239.69ZM439.186 245H437.476L434.902 241.328L432.31 245H430.6L433.894 240.32L430.78 235.892H432.472L434.902 239.366L437.314 235.892H439.006L435.892 240.32L439.186 245ZM440.3 240.446C440.3 237.674 442.208 235.64 444.98 235.64C446.654 235.64 448.022 236.342 448.796 237.62L447.608 238.448C447.05 237.53 446.132 237.044 444.998 237.044C444.08 237.044 443.324 237.35 442.748 237.98C442.172 238.61 441.884 239.42 441.884 240.446C441.884 241.472 442.172 242.282 442.748 242.912C443.324 243.542 444.08 243.848 444.998 243.848C446.132 243.848 447.05 243.362 447.608 242.444L448.796 243.272C448.022 244.55 446.654 245.252 444.98 245.252C442.208 245.252 440.3 243.218 440.3 240.446ZM458.976 239.168V245H457.464V239.528C457.464 237.8 456.816 237.044 455.376 237.044C453.738 237.044 452.568 238.052 452.568 239.582V245H451.056V231.824H452.568V237.44C453.072 236.288 454.242 235.64 455.736 235.64C457.806 235.64 458.976 236.918 458.976 239.168ZM469.203 235.892H470.715V245H469.203V243.326C468.681 244.496 467.367 245.252 465.837 245.252C463.335 245.252 461.499 243.254 461.499 240.446C461.499 237.638 463.335 235.64 465.837 235.64C467.367 235.64 468.681 236.396 469.203 237.566V235.892ZM469.275 240.446C469.275 239.456 468.987 238.628 468.411 237.998C467.853 237.368 467.097 237.044 466.179 237.044C465.261 237.044 464.505 237.368 463.929 237.998C463.371 238.628 463.083 239.456 463.083 240.446C463.083 241.436 463.371 242.264 463.929 242.894C464.505 243.524 465.261 243.848 466.179 243.848C467.097 243.848 467.853 243.524 468.411 242.894C468.987 242.264 469.275 241.436 469.275 240.446ZM481.88 239.168V245H480.368V239.528C480.368 237.8 479.72 237.044 478.28 237.044C476.642 237.044 475.472 238.052 475.472 239.582V245H473.96V235.892H475.472V237.44C475.976 236.288 477.146 235.64 478.64 235.64C480.71 235.64 481.88 236.918 481.88 239.168ZM492.108 235.892H493.62V243.956C493.62 247.124 491.91 248.852 488.886 248.852C487.176 248.852 485.682 248.294 484.746 247.34L485.61 246.224C486.456 246.998 487.608 247.448 488.886 247.448C490.974 247.448 492.108 246.26 492.108 243.956V243.128C491.586 244.28 490.308 245 488.742 245C486.24 245 484.404 243.074 484.404 240.32C484.404 237.566 486.24 235.64 488.742 235.64C490.272 235.64 491.586 236.378 492.108 237.548V235.892ZM492.18 240.32C492.18 239.366 491.892 238.574 491.316 237.962C490.758 237.35 490.002 237.044 489.084 237.044C488.166 237.044 487.41 237.35 486.834 237.962C486.276 238.574 485.988 239.366 485.988 240.32C485.988 241.274 486.276 242.066 486.834 242.678C487.41 243.29 488.166 243.596 489.084 243.596C490.002 243.596 490.758 243.29 491.316 242.678C491.892 242.066 492.18 241.274 492.18 240.32ZM496.594 232.94C496.594 232.346 497.044 231.896 497.638 231.896C498.232 231.896 498.682 232.346 498.682 232.94C498.682 233.534 498.232 233.984 497.638 233.984C497.044 233.984 496.594 233.534 496.594 232.94ZM496.882 245V235.892H498.394V245H496.882ZM509.565 239.168V245H508.053V239.528C508.053 237.8 507.405 237.044 505.965 237.044C504.327 237.044 503.157 238.052 503.157 239.582V245H501.645V235.892H503.157V237.44C503.661 236.288 504.831 235.64 506.325 235.64C508.395 235.64 509.565 236.918 509.565 239.168ZM519.793 235.892H521.305V243.956C521.305 247.124 519.595 248.852 516.571 248.852C514.861 248.852 513.367 248.294 512.431 247.34L513.295 246.224C514.141 246.998 515.293 247.448 516.571 247.448C518.659 247.448 519.793 246.26 519.793 243.956V243.128C519.271 244.28 517.993 245 516.427 245C513.925 245 512.089 243.074 512.089 240.32C512.089 237.566 513.925 235.64 516.427 235.64C517.957 235.64 519.271 236.378 519.793 237.548V235.892ZM519.865 240.32C519.865 239.366 519.577 238.574 519.001 237.962C518.443 237.35 517.687 237.044 516.769 237.044C515.851 237.044 515.095 237.35 514.519 237.962C513.961 238.574 513.673 239.366 513.673 240.32C513.673 241.274 513.961 242.066 514.519 242.678C515.095 243.29 515.851 243.596 516.769 243.596C517.687 243.596 518.443 243.29 519.001 242.678C519.577 242.066 519.865 241.274 519.865 240.32ZM535.754 235.892H537.266V245H535.754V243.326C535.232 244.496 533.918 245.252 532.388 245.252C529.886 245.252 528.05 243.254 528.05 240.446C528.05 237.638 529.886 235.64 532.388 235.64C533.918 235.64 535.232 236.396 535.754 237.566V235.892ZM535.826 240.446C535.826 239.456 535.538 238.628 534.962 237.998C534.404 237.368 533.648 237.044 532.73 237.044C531.812 237.044 531.056 237.368 530.48 237.998C529.922 238.628 529.634 239.456 529.634 240.446C529.634 241.436 529.922 242.264 530.48 242.894C531.056 243.524 531.812 243.848 532.73 243.848C533.648 243.848 534.404 243.524 534.962 242.894C535.538 242.264 535.826 241.436 535.826 240.446ZM541.177 242.66V237.188H539.359V235.892H541.177V233.192H542.689V235.892H545.551V237.188H542.689V242.552C542.689 243.434 543.139 243.812 544.165 243.812C544.579 243.812 545.065 243.758 545.587 243.65V244.91C545.065 245.072 544.525 245.144 543.949 245.144C542.149 245.144 541.177 244.298 541.177 242.66ZM272.776 270.66V265.188H270.958V263.892H272.776V261.192H274.288V263.892H277.15V265.188H274.288V270.552C274.288 271.434 274.738 271.812 275.764 271.812C276.178 271.812 276.664 271.758 277.186 271.65V272.91C276.664 273.072 276.124 273.144 275.548 273.144C273.748 273.144 272.776 272.298 272.776 270.66ZM287.413 267.168V273H285.901V267.528C285.901 265.8 285.253 265.044 283.813 265.044C282.175 265.044 281.005 266.052 281.005 267.582V273H279.493V259.824H281.005V265.44C281.509 264.288 282.679 263.64 284.173 263.64C286.243 263.64 287.413 264.918 287.413 267.168ZM298.775 268.914H291.485C291.647 270.732 292.871 271.848 294.653 271.848C295.823 271.848 296.795 271.38 297.551 270.426L298.577 271.29C297.695 272.532 296.291 273.252 294.617 273.252C291.863 273.252 289.937 271.29 289.937 268.464C289.937 265.674 291.809 263.64 294.491 263.64C297.029 263.64 298.829 265.458 298.829 268.104C298.829 268.374 298.811 268.644 298.775 268.914ZM291.521 267.69H297.281C297.137 266.016 296.075 265.044 294.491 265.044C292.889 265.044 291.791 266.052 291.521 267.69ZM314.742 268.446C314.742 271.254 312.906 273.252 310.422 273.252C308.892 273.252 307.596 272.496 307.038 271.326V273H305.526V259.824H307.038V265.566C307.596 264.396 308.892 263.64 310.422 263.64C312.906 263.64 314.742 265.638 314.742 268.446ZM313.158 268.446C313.158 267.456 312.87 266.628 312.294 265.998C311.736 265.368 310.98 265.044 310.062 265.044C309.144 265.044 308.388 265.368 307.812 265.998C307.254 266.628 306.966 267.456 306.966 268.446C306.966 269.436 307.254 270.264 307.812 270.894C308.388 271.524 309.144 271.848 310.062 271.848C310.98 271.848 311.736 271.524 312.294 270.894C312.87 270.264 313.158 269.436 313.158 268.446ZM325.529 268.914H318.239C318.401 270.732 319.625 271.848 321.407 271.848C322.577 271.848 323.549 271.38 324.305 270.426L325.331 271.29C324.449 272.532 323.045 273.252 321.371 273.252C318.617 273.252 316.691 271.29 316.691 268.464C316.691 265.674 318.563 263.64 321.245 263.64C323.783 263.64 325.583 265.458 325.583 268.104C325.583 268.374 325.565 268.644 325.529 268.914ZM318.275 267.69H324.035C323.891 266.016 322.829 265.044 321.245 265.044C319.643 265.044 318.545 266.052 318.275 267.69ZM327.268 271.272L328.366 270.462C329.014 271.398 330.076 271.884 331.318 271.884C332.614 271.884 333.406 271.344 333.406 270.498C333.406 269.85 332.956 269.472 331.804 269.202L330.364 268.878C328.492 268.446 327.592 267.618 327.592 266.34C327.592 264.738 328.96 263.64 331.174 263.64C332.758 263.64 334.036 264.198 334.774 265.188L333.73 266.088C333.136 265.386 332.218 265.008 331.084 265.008C329.788 265.008 329.104 265.494 329.104 266.304C329.104 266.898 329.518 267.24 330.742 267.528L332.344 267.888C334.144 268.302 334.918 269.112 334.918 270.39C334.918 272.118 333.568 273.252 331.336 273.252C329.482 273.252 327.988 272.496 327.268 271.272ZM337.991 270.66V265.188H336.173V263.892H337.991V261.192H339.503V263.892H342.365V265.188H339.503V270.552C339.503 271.434 339.953 271.812 340.979 271.812C341.393 271.812 341.879 271.758 342.401 271.65V272.91C341.879 273.072 341.339 273.144 340.763 273.144C338.963 273.144 337.991 272.298 337.991 270.66ZM353.968 263.874V265.206C353.698 265.17 353.446 265.152 353.176 265.152C351.394 265.152 350.368 266.196 350.368 268.338V273H348.856V263.892H350.368V265.602C350.782 264.432 351.79 263.748 353.14 263.748C353.446 263.748 353.734 263.784 353.968 263.874ZM362.733 263.892H364.245V273H362.733V271.326C362.211 272.496 360.897 273.252 359.367 273.252C356.865 273.252 355.029 271.254 355.029 268.446C355.029 265.638 356.865 263.64 359.367 263.64C360.897 263.64 362.211 264.396 362.733 265.566V263.892ZM362.805 268.446C362.805 267.456 362.517 266.628 361.941 265.998C361.383 265.368 360.627 265.044 359.709 265.044C358.791 265.044 358.035 265.368 357.459 265.998C356.901 266.628 356.613 267.456 356.613 268.446C356.613 269.436 356.901 270.264 357.459 270.894C358.035 271.524 358.791 271.848 359.709 271.848C360.627 271.848 361.383 271.524 361.941 270.894C362.517 270.264 362.805 269.436 362.805 268.446ZM368.155 270.66V265.188H366.337V263.892H368.155V261.192H369.667V263.892H372.529V265.188H369.667V270.552C369.667 271.434 370.117 271.812 371.143 271.812C371.557 271.812 372.043 271.758 372.565 271.65V272.91C372.043 273.072 371.503 273.144 370.927 273.144C369.127 273.144 368.155 272.298 368.155 270.66ZM382.886 268.914H375.596C375.758 270.732 376.982 271.848 378.764 271.848C379.934 271.848 380.906 271.38 381.662 270.426L382.688 271.29C381.806 272.532 380.402 273.252 378.728 273.252C375.974 273.252 374.048 271.29 374.048 268.464C374.048 265.674 375.92 263.64 378.602 263.64C381.14 263.64 382.94 265.458 382.94 268.104C382.94 268.374 382.922 268.644 382.886 268.914ZM375.632 267.69H381.392C381.248 266.016 380.186 265.044 378.602 265.044C377 265.044 375.902 266.052 375.632 267.69ZM384.625 271.272L385.723 270.462C386.371 271.398 387.433 271.884 388.675 271.884C389.971 271.884 390.763 271.344 390.763 270.498C390.763 269.85 390.313 269.472 389.161 269.202L387.721 268.878C385.849 268.446 384.949 267.618 384.949 266.34C384.949 264.738 386.317 263.64 388.531 263.64C390.115 263.64 391.393 264.198 392.131 265.188L391.087 266.088C390.493 265.386 389.575 265.008 388.441 265.008C387.145 265.008 386.461 265.494 386.461 266.304C386.461 266.898 386.875 267.24 388.099 267.528L389.701 267.888C391.501 268.302 392.275 269.112 392.275 270.39C392.275 272.118 390.925 273.252 388.693 273.252C386.839 273.252 385.345 272.496 384.625 271.272ZM394.18 272.046C394.18 271.416 394.612 270.984 395.26 270.984C395.908 270.984 396.34 271.416 396.34 272.046C396.34 272.694 395.908 273.144 395.26 273.144C394.612 273.144 394.18 272.694 394.18 272.046Z" fill="white"/>
<defs>
<linearGradient id="paint0_linear_65_20910" x1="372" y1="229" x2="397.5" y2="1358" gradientUnits="userSpaceOnUse">
<stop stop-color="#4C1EF5"/>
<stop offset="1" stop-color="#B81EF5"/>
</linearGradient>
</defs>
</svg>
