<svg width="22" height="17" viewBox="0 0 22 17" fill="none" xmlns="http://www.w3.org/2000/svg">
<path d="M0.5 5.1691V13.75C0.5 15.4069 1.84315 16.75 3.5 16.75H18.5C20.1569 16.75 21.5 15.4069 21.5 13.75V5.1691L12.5723 10.6631C11.6081 11.2564 10.3919 11.2564 9.42771 10.6631L0.5 5.1691Z" fill="url(#paint0_linear_55_14462)"/>
<path d="M21.5 3.40783V3.25C21.5 1.59315 20.1569 0.25 18.5 0.25H3.5C1.84315 0.25 0.5 1.59315 0.5 3.25V3.40783L10.2139 9.38558C10.696 9.68227 11.304 9.68227 11.7861 9.38558L21.5 3.40783Z" fill="url(#paint1_linear_55_14462)"/>
<defs>
<linearGradient id="paint0_linear_55_14462" x1="0.5" y1="8.5" x2="21.5" y2="8.5" gradientUnits="userSpaceOnUse">
<stop stop-color="#4C1EF5"/>
<stop offset="1" stop-color="#B81EF5"/>
</linearGradient>
<linearGradient id="paint1_linear_55_14462" x1="0.5" y1="8.5" x2="21.5" y2="8.5" gradientUnits="userSpaceOnUse">
<stop stop-color="#4C1EF5"/>
<stop offset="1" stop-color="#B81EF5"/>
</linearGradient>
</defs>
</svg>
