<svg width="56" height="57" viewBox="0 0 56 57" fill="none" xmlns="http://www.w3.org/2000/svg">
<circle cx="28" cy="28.5" r="28" fill="#04010F"/>
<path d="M20.9998 25.583C20.9998 22.0392 23.8727 19.1663 27.4165 19.1663C30.5557 19.1663 33.1705 21.4217 33.7247 24.4008C33.8024 24.8186 34.1011 25.161 34.5044 25.2948C36.827 26.0651 38.4998 28.2552 38.4998 30.833C38.4998 34.0547 35.8882 36.6663 32.6665 36.6663C32.0222 36.6663 31.4998 37.1887 31.4998 37.833C31.4998 38.4773 32.0222 38.9997 32.6665 38.9997C37.1768 38.9997 40.8332 35.3433 40.8332 30.833C40.8332 27.4585 38.7871 24.5645 35.8705 23.3192C34.8725 19.584 31.4669 16.833 27.4165 16.833C22.584 16.833 18.6665 20.7505 18.6665 25.583C18.6665 25.7 18.6688 25.8165 18.6734 25.9325C16.5787 27.141 15.1665 29.4043 15.1665 31.9997C15.1665 35.8657 18.3005 38.9997 22.1665 38.9997C22.8108 38.9997 23.3332 38.4773 23.3332 37.833C23.3332 37.1887 22.8108 36.6663 22.1665 36.6663C19.5892 36.6663 17.4998 34.577 17.4998 31.9997C17.4998 30.0661 18.676 28.4046 20.3566 27.6966C20.8429 27.4918 21.1312 26.986 21.0596 26.4632C21.0202 26.176 20.9998 25.8822 20.9998 25.583Z" fill="#475367"/>
<path d="M27.2247 31.1277C27.6668 30.7348 28.3329 30.7348 28.7749 31.1277L30.5249 32.6833C31.0065 33.1113 31.0499 33.8487 30.6218 34.3303C30.2473 34.7516 29.6361 34.8376 29.1665 34.5659V40.1663C29.1665 40.8107 28.6442 41.333 27.9998 41.333C27.3555 41.333 26.8332 40.8107 26.8332 40.1663V34.5659C26.3636 34.8376 25.7523 34.7516 25.3779 34.3303C24.9498 33.8487 24.9932 33.1113 25.4747 32.6833L27.2247 31.1277Z" fill="#475367"/>
</svg>
